<svg xmlns="http://www.w3.org/2000/svg" version="1.1" xmlns:xlink="http://www.w3.org/1999/xlink" xmlns:svgjs="http://svgjs.com/svgjs" width="512" height="512" x="0" y="0" viewBox="0 0 64 64" style="enable-background:new 0 0 512 512" xml:space="preserve" class=""><g><path d="M58.438 22.864a.966.966 0 0 0 0-1.93 5.958 5.958 0 0 1-2.907-.75.978.978 0 0 0-.111-.061 7.415 7.415 0 0 0-4.542-1.44c-3.943-.054-3.976 2.177-7.56 2.25-3.58-.073-3.615-2.304-7.555-2.25-3.937-.054-3.972 2.176-7.548 2.25a5.51 5.51 0 0 1-3.282-.989 7.95 7.95 0 0 0-8.54 0 6.06 6.06 0 0 1-5.365.616v-5.965l9.554-4.246a.972.972 0 0 0 0-1.764L10.455 4.083a.965.965 0 0 0-1.358.882v14.56a7.05 7.05 0 0 0-3.536-.842.966.966 0 0 0 0 1.93 5.506 5.506 0 0 1 3.281.99c.077.058.173.098.255.152v4.859H7.299a.966.966 0 0 0 0 1.93h1.798v12.724H7.299a.966.966 0 0 0 0 1.931h1.798v12.46A4.346 4.346 0 0 0 13.438 60h38.26a4.347 4.347 0 0 0 4.343-4.342V41.174h1.921a.966.966 0 0 0 0-1.93h-1.921v-16.72a6.933 6.933 0 0 0 2.397.34zM11.028 6.451l6.785 3.016-6.785 3.016zm43.081 32.792h-1.673a.966.966 0 1 0 0 1.931h1.674v14.484a2.414 2.414 0 0 1-2.411 2.411H13.438a2.413 2.413 0 0 1-2.41-2.41v-12.46h1.797a.966.966 0 0 0 0-1.93h-1.797V28.544h1.797a.966.966 0 0 0 0-1.931h-1.797v-4.031a7.97 7.97 0 0 0 6.353-.98 6.01 6.01 0 0 1 6.564 0 7.361 7.361 0 0 0 4.27 1.261c3.935.054 3.972-2.177 7.548-2.25 3.582.073 3.614 2.304 7.555 2.25 3.94.054 3.98-2.177 7.56-2.25a6.084 6.084 0 0 1 3.232.93z" fill="#13c5dd" data-original="#000000" class=""></path><path d="M40.146 43.398c-4.194 0-7.682 2.654-9.059 3.867l-3.076-2.344a.973.973 0 0 0-1.55.768v6.117a.966.966 0 0 0 1.603.724s2.179-1.919 3.069-2.702c1.406 1.23 4.864 3.827 9.013 3.827 4.2 0 7.737-2.707 9.062-3.87a1.67 1.67 0 0 0 0-2.516c-1.325-1.164-4.862-3.87-9.062-3.87zm-11.755 6.27v-2.03l1.236.942zm4.192-1.143c4.8-4.188 10.328-4.185 15.127.001-4.793 4.18-10.303 4.197-15.127-.001zM17.374 36.56a.967.967 0 0 0 .638-.24s2.178-1.92 3.068-2.703c1.406 1.23 4.864 3.827 9.013 3.827 4.199 0 7.738-2.706 9.063-3.87a1.673 1.673 0 0 0 0-2.517c-1.325-1.163-4.864-3.87-9.063-3.87-4.194 0-7.682 2.654-9.059 3.867L17.96 28.71a.973.973 0 0 0-1.55.768v6.117a.971.971 0 0 0 .965.965zm20.284-4.245c-4.793 4.18-10.304 4.198-15.128 0 4.8-4.19 10.33-4.185 15.128 0zm-19.319-.887 1.235.942-1.235 1.088zM46.072 28.81a.966.966 0 0 0 0 1.932h4.502a.966.966 0 0 0 0-1.931zM50.574 33.312h-4.502a.966.966 0 0 0 0 1.931h4.502a.966.966 0 0 0 0-1.931zM19.065 46.816h-4.501a.966.966 0 0 0 0 1.93h4.501a.966.966 0 0 0 0-1.93zM19.065 51.317h-4.501a.966.966 0 0 0 0 1.93h4.501a.966.966 0 0 0 0-1.93z" fill="#13c5dd" data-original="#000000" class=""></path></g></svg>