<svg xmlns="http://www.w3.org/2000/svg" version="1.1" xmlns:xlink="http://www.w3.org/1999/xlink" xmlns:svgjs="http://svgjs.com/svgjs" width="512" height="512" x="0" y="0" viewBox="0 0 512 512" style="enable-background:new 0 0 512 512" xml:space="preserve"><g><circle cx="457.5" cy="302.484" r="10" fill="#13c5dd" data-original="#000000"></circle><circle cx="165.5" cy="387.484" r="10" fill="#13c5dd" data-original="#000000"></circle><circle cx="175" cy="269.401" r="10" fill="#13c5dd" data-original="#000000"></circle><circle cx="337.5" cy="287.484" r="10" fill="#13c5dd" data-original="#000000"></circle><circle cx="288.5" cy="387.484" r="10" fill="#13c5dd" data-original="#000000"></circle><circle cx="240.5" cy="322.484" r="10" fill="#13c5dd" data-original="#000000"></circle><path d="M504.5 240.923a7.5 7.5 0 0 0 7.5-7.5v-51.898c0-72.468-58.958-131.426-131.427-131.426-28.568 0-55.766 9.037-78.653 26.134-22.888 17.097-39.269 40.614-47.374 68.009l-5.234 17.694c-1.522 5.146.3 10.507 4.641 13.661 4.341 3.152 10.003 3.226 14.427.186l25.896-17.804c5.191-3.569 11.438-4.787 17.591-3.426 6.151 1.36 11.304 5.097 14.508 10.521a22.419 22.419 0 0 1-7.188 30.336l-36.044 23.209c-16.803 9.753-37.641 9.727-54.422-.079a.382.382 0 0 1-.027-.016c-21.536-12.575-48.26-12.522-69.754.141l-.904.533c-15.835 9.332-35.567 9.433-51.496.261l-2.189-1.26c-21.759-12.528-48.687-12.349-70.276.468l-23.002 13.656C4.243 236.377 0 243.831 0 251.775v193.126c0 9.649 7.851 17.5 17.5 17.5h477c9.649 0 17.5-7.851 17.5-17.5V268.423c0-4.142-3.357-7.5-7.5-7.5s-7.5 3.358-7.5 7.5v148.978H104a7.5 7.5 0 0 0 0 15h393v12.5c0 1.378-1.121 2.5-2.5 2.5h-477a2.503 2.503 0 0 1-2.5-2.5v-12.5h54a7.5 7.5 0 0 0 0-15H15V251.775a7.655 7.655 0 0 1 3.731-6.553l23.002-13.656c16.939-10.055 38.064-10.195 55.134-.368l2.189 1.26c20.6 11.861 46.118 11.731 66.601-.34l.903-.532c16.818-9.907 37.733-9.945 54.585-.1l.021.012a69.027 69.027 0 0 0 34.414 9.406c.121.006.24.018.362.018h71.138c34.419 0 62.421-28.002 62.421-62.421 0-12.979-4.03-25.39-11.654-35.892-10.937-15.066-27.861-24.433-46.435-25.7-18.58-1.276-36.615 5.714-49.497 19.156l-13.462 14.048.478-1.617c14.527-49.104 60.438-83.398 111.645-83.398C444.771 65.099 497 117.328 497 181.525v51.898a7.5 7.5 0 0 0 7.5 7.5zM330.39 131.875c14.127.964 27 8.088 35.317 19.547 5.752 7.923 8.793 17.288 8.793 27.08 0 26.147-21.272 47.42-47.421 47.42h-27.571l27.801-17.901a37.373 37.373 0 0 0 11.983-50.574 37.612 37.612 0 0 0-24.187-17.542 37.432 37.432 0 0 0-14.002-.392 47.54 47.54 0 0 1 29.287-7.638z" fill="#13c5dd" data-original="#000000"></path><path d="M477.739 337.766c-3.933-3.48-9.473-4.153-14.118-1.707l-17.881 9.411c-11.723-11.359-27.486-17.871-44.192-17.871h-7.278a49.857 49.857 0 0 0-41.566 22.246 27.427 27.427 0 0 0 0 30.509A49.86 49.86 0 0 0 394.27 402.6h7.278c16.706 0 32.469-6.512 44.192-17.871l17.881 9.411a12.527 12.527 0 0 0 5.846 1.458c2.975 0 5.913-1.077 8.271-3.164 3.918-3.466 5.253-8.862 3.401-13.746-3.466-9.143-3.466-18.032 0-27.175 1.852-4.885.517-10.281-3.4-13.747zm-112.555 20.4a34.98 34.98 0 0 1 8.655-8.972c2.709 3.925 4.209 9.481 4.209 15.905 0 6.36-1.503 11.943-4.225 15.893a34.968 34.968 0 0 1-8.639-8.96 12.465 12.465 0 0 1 0-13.866zm36.364 29.433h-7.278c-2.202 0-4.374-.206-6.493-.605 3.46-6.093 5.271-13.565 5.271-21.895 0-8.394-1.825-15.861-5.255-21.899a35.083 35.083 0 0 1 6.477-.601h7.278a48.458 48.458 0 0 1 40.4 21.622 1.58 1.58 0 0 1 0 1.756 48.458 48.458 0 0 1-40.4 21.622zm63.663-9.573-9.91-5.216a16.513 16.513 0 0 0 0-15.422l9.91-5.216c-2.218 8.6-2.218 17.254 0 25.854zM110.5 362.599h7.278a49.855 49.855 0 0 0 41.566-22.246 27.426 27.426 0 0 0 0-30.508 49.855 49.855 0 0 0-41.566-22.246H110.5c-16.706 0-32.469 6.512-44.193 17.87l-17.882-9.411c-4.642-2.442-10.184-1.772-14.117 1.708-3.917 3.467-5.252 8.862-3.401 13.746 3.466 9.143 3.466 18.032 0 27.175-1.852 4.884-.517 10.28 3.401 13.747 2.359 2.087 5.296 3.164 8.272 3.164 1.985 0 3.987-.479 5.845-1.458l17.881-9.411c11.725 11.359 27.488 17.87 44.194 17.87zm36.364-30.566a34.968 34.968 0 0 1-8.639 8.96c-2.72-3.943-4.225-9.529-4.225-15.894 0-6.401 1.509-11.971 4.216-15.901a34.966 34.966 0 0 1 8.648 8.967 12.468 12.468 0 0 1 0 13.868zM110.5 302.599h7.278c2.204 0 4.377.207 6.498.606-3.436 6.053-5.276 13.529-5.276 21.894 0 8.333 1.813 15.807 5.27 21.895a35.074 35.074 0 0 1-6.492.605H110.5a48.458 48.458 0 0 1-40.401-21.623 1.58 1.58 0 0 1 0-1.756 48.46 48.46 0 0 1 40.401-21.621zm-63.663 35.427c2.218-8.599 2.217-17.254 0-25.853l9.909 5.215a16.507 16.507 0 0 0 0 15.422zM12.5 184.599h173c6.893 0 12.5-5.608 12.5-12.5 0-8.519-3.3-16.279-8.682-22.081A59.871 59.871 0 0 0 205 109.599c0-33.084-26.916-60-60-60-30.715 0-56.099 23.204-59.578 53h-1.813c-19.931 0-37.482 13.438-42.683 32.678a5.86 5.86 0 0 1-5.645 4.322H32.5c-17.92 0-32.5 14.58-32.5 32.5 0 6.893 5.607 12.5 12.5 12.5zm132.5-120c24.813 0 45 20.187 45 45 0 12.081-4.835 23.539-13.354 31.97a32.342 32.342 0 0 0-11.146-1.97h-2.781a5.857 5.857 0 0 1-5.645-4.322c-5.2-19.24-22.752-32.678-42.683-32.678h-13.844c3.373-21.5 22.021-38 44.453-38zm-112.5 90h2.781c9.398 0 17.674-6.336 20.125-15.408 3.436-12.713 15.033-21.592 28.202-21.592h30.783c13.169 0 24.766 8.879 28.202 21.591 2.452 9.072 10.728 15.409 20.125 15.409h2.781c8.801 0 16.105 6.53 17.322 15H15.178c1.217-8.469 8.521-15 17.322-15z" fill="#13c5dd" data-original="#000000"></path><circle cx="54.5" cy="392.484" r="10" fill="#13c5dd" data-original="#000000"></circle><circle cx="415.5" cy="243.484" r="10" fill="#13c5dd" data-original="#000000"></circle><circle cx="59.5" cy="264.484" r="10" fill="#13c5dd" data-original="#000000"></circle></g></svg>