<svg xmlns="http://www.w3.org/2000/svg" version="1.1" xmlns:xlink="http://www.w3.org/1999/xlink" xmlns:svgjs="http://svgjs.com/svgjs" width="512" height="512" x="0" y="0" viewBox="0 0 512 512" style="enable-background:new 0 0 512 512" xml:space="preserve" class=""><g><path d="M309.054 496.991H94.852C50.822 496.991 15 461.17 15 417.139v-61.206c0-4.143-3.357-7.5-7.5-7.5s-7.5 3.357-7.5 7.5v61.206c0 52.302 42.55 94.852 94.852 94.852h214.202c4.143 0 7.5-3.357 7.5-7.5s-3.358-7.5-7.5-7.5zM453.622 142.059l-64.026-72.125a175.12 175.12 0 0 0-25.395-23.474l-33.669-25.466c-11.139-8.413-26.804-7.795-37.256 1.475l-3.979 3.537c-12.152 10.776-13.266 29.351-2.47 41.495l21.205 23.886c5.113 5.759 4.585 14.607-1.177 19.724l-29.842 26.487c-5.766 5.123-14.585 4.598-19.714-1.178l-21.205-23.887c-10.757-12.116-29.372-13.221-41.506-2.463l-3.98 3.539c-4.505 3.997-7.518 9.153-8.932 14.689a118.744 118.744 0 0 0-8.511-.293c-22.431 0-34.256 5.733-44.689 10.792-9.853 4.777-19.158 9.289-38.145 9.289-14.07 0-22.336-2.513-27.971-4.703C32.793 131.913 0 153.101 0 185.738v135.054c0 4.143 3.357 7.5 7.5 7.5s7.5-3.357 7.5-7.5V185.738c0-21.553 21.642-36.242 41.932-28.372 10.176 3.956 20.478 5.721 33.401 5.721 22.431 0 34.256-5.733 44.689-10.792 9.853-4.777 19.158-9.289 38.145-9.289 3.053 0 5.894.129 8.614.362a29.202 29.202 0 0 0 2.962 7.055l21.287 36.451a176.609 176.609 0 0 0 20.294 27.99l67 75.475c23.168 26.098 63.047 28.476 89.133 5.309l68.837-61.105c22.84-20.271 27.448-53.753 12.496-79.211 16.827-1.469 33.21 11.497 33.21 30.417v231.392c0 44.03-35.821 79.852-79.852 79.852h-72.953c-4.143 0-7.5 3.357-7.5 7.5s3.357 7.5 7.5 7.5h72.953c52.302 0 94.852-42.55 94.852-94.852V185.748c0-31.215-29.892-51.867-58.378-43.689zm-12.285 81.264-68.839 61.107c-19.887 17.662-50.289 15.853-67.957-4.051l-66.997-75.472a161.55 161.55 0 0 1-18.562-25.603l-21.286-36.448c-3.452-5.908-2.245-13.489 2.875-18.031l3.979-3.538c5.946-5.274 15.067-4.723 20.329 1.205l21.205 23.887c10.607 11.946 28.95 13.038 40.889 2.437l29.842-26.487c11.947-10.609 13.04-28.957 2.436-40.9L298.042 57.54c-5.266-5.925-4.761-15.017 1.216-20.317l3.979-3.537c5.118-4.541 12.795-4.846 18.251-.725l33.669 25.467a160.016 160.016 0 0 1 23.221 21.464c.118.133 66.754 75.189 66.899 75.36h-.001c18.417 21.201 15.067 51.203-3.939 68.071z" fill="#13c5dd" data-original="#000000" class=""></path><path d="m320.909 231.622 2.245-1.123a7.5 7.5 0 0 0-6.712-13.414l-22.37 11.194a7.5 7.5 0 0 0 6.712 13.414l6.613-3.309c.31.737.737 1.438 1.297 2.07l6.908 7.791a7.5 7.5 0 0 0 10.587.636 7.499 7.499 0 0 0 .636-10.587zM405.246 154.753a7.476 7.476 0 0 0-1.91-1.539l4.069-6.169a7.501 7.501 0 0 0-12.522-8.26l-13.776 20.884a7.501 7.501 0 0 0 12.522 8.26l1.388-2.104 5.92 6.669a7.5 7.5 0 1 0 11.217-9.959zM382.506 192.959a29.42 29.42 0 0 0-23.285 7.154 29.454 29.454 0 0 0-9.905 22.294 7.501 7.501 0 0 0 15-.124c-.074-8.997 7.783-15.548 16.269-14.448 4.105.536 7.868-2.37 8.399-6.478a7.501 7.501 0 0 0-6.478-8.398zM48.835 409.742l38.344 38.333c12.936 12.938 33.872 12.943 46.811.002 2.398-2.396 84.499-84.498 86.258-86.258 10.481-10.479 12.326-25.972 6.231-38.174l4.953-4.958c12.641-12.627 12.658-33.109.006-45.747l-7.456-7.467c-12.615-12.6-33.138-12.601-45.759.007l-4.948 4.954c-12.183-6.086-27.675-4.268-38.171 6.228l-86.269 86.267c-12.9 12.9-12.901 33.899 0 46.813zm99.02 3.256-63.934-63.943 16.012-16.011 63.943 63.934-16.021 16.02zm40.974-136.912c6.768-6.761 17.78-6.763 24.544-.007l7.456 7.466c6.766 6.759 6.801 17.736-.006 24.535l-3.747 3.752-31.991-31.998zm-43.12 11.183c7.057-7.059 18.541-7.059 25.598 0l38.337 38.347c7.058 7.048 7.091 18.502-.004 25.598l-35.158 35.158-63.943-63.933zM59.44 373.536l13.874-13.874 63.934 63.943-13.865 13.865c-7.076 7.076-18.52 7.078-25.599-.001l-38.342-38.331c-7.054-7.063-7.055-18.549-.002-25.602zM82.803 271.021c20.744 0 37.621-16.877 37.621-37.621s-16.877-37.621-37.621-37.621-37.621 16.877-37.621 37.621 16.877 37.621 37.621 37.621zm0-60.242c12.474 0 22.621 10.147 22.621 22.621s-10.147 22.621-22.621 22.621-22.621-10.147-22.621-22.621 10.147-22.621 22.621-22.621zM361.394 436.718c0-16.592-13.499-30.091-30.091-30.091s-30.091 13.499-30.091 30.091 13.499 30.091 30.091 30.091 30.091-13.499 30.091-30.091zm-30.091 15.091c-8.321 0-15.091-6.77-15.091-15.091s6.77-15.091 15.091-15.091 15.091 6.77 15.091 15.091-6.77 15.091-15.091 15.091zM481.879 353.884c0-24.896-20.255-45.151-45.151-45.151s-45.151 20.255-45.151 45.151 20.255 45.151 45.151 45.151 45.151-20.254 45.151-45.151zm-45.151 30.152c-16.626 0-30.151-13.525-30.151-30.151s13.525-30.151 30.151-30.151 30.151 13.525 30.151 30.151-13.525 30.151-30.151 30.151zM235.636 442.022a7.501 7.501 0 0 0 10.607 0l7.53-7.53a7.5 7.5 0 0 0-10.607-10.607l-7.53 7.53a7.5 7.5 0 0 0 0 10.607zM306.485 366.718a7.5 7.5 0 0 0 0-10.607l-7.53-7.53a7.5 7.5 0 0 0-10.607 10.607l7.53 7.53a7.501 7.501 0 0 0 10.607 0zM438.954 423.884l-7.53 7.53a7.5 7.5 0 0 0 10.607 10.607l7.53-7.53a7.5 7.5 0 0 0-10.607-10.607zM163.41 208.583l7.53-7.53a7.5 7.5 0 0 0-10.607-10.607l-7.53 7.53a7.5 7.5 0 0 0 10.607 10.607zM47.378 306.476l7.53 7.53a7.501 7.501 0 0 0 10.607-10.607l-7.53-7.53a7.5 7.5 0 0 0-10.607 10.607zM127.966 101.385c17.119-15.317 4.977-50.866-7.082-64.347h-.001C107.05 21.577 83.219 20.25 67.762 34.081 52.27 47.942 50.931 71.706 64.804 87.203c12.552 14.029 46.332 29.239 63.162 14.182zM77.764 45.26c9.275-8.299 23.605-7.536 31.941 1.78h-.001c9.919 11.087 16.077 36.172 8.26 43.166-7.813 6.99-32.06-1.916-41.982-13.008-8.336-9.309-7.541-23.598 1.782-31.938zM430.183 76.879c16.855 15.067 50.698-.248 63.17-14.186 13.829-15.458 12.503-39.288-2.958-53.122-15.458-13.827-39.286-12.502-53.119 2.956-6.567 7.333-12.092 19.177-14.417 30.908-2.92 14.724-.32 26.6 7.324 33.444zm7.388-30.526c1.778-8.966 6.149-18.538 10.878-23.819a.002.002 0 0 0 .002-.002c8.331-9.309 22.659-10.085 31.941-1.781 9.297 8.319 10.096 22.647 1.781 31.941-9.922 11.087-34.173 19.992-41.99 13.009-3.428-3.071-4.405-10.304-2.612-19.348z" fill="#13c5dd" data-original="#000000" class=""></path></g></svg>