<svg xmlns="http://www.w3.org/2000/svg" version="1.1" xmlns:xlink="http://www.w3.org/1999/xlink" xmlns:svgjs="http://svgjs.com/svgjs" width="512" height="512" x="0" y="0" viewBox="0 0 512 512" style="enable-background:new 0 0 512 512" xml:space="preserve" class=""><g><path d="M0 0v437.677C0 478.654 33.346 512 74.323 512h363.355C478.654 512 512 478.654 512 437.677V0zm129.074 16.516 48.169 41.29-48.169 41.29h-2.147l-48.169-41.29 48.169-41.29zm25.377 0h70.962L189.936 46.93zM66.065 46.931 30.58 16.516h70.962zM53.372 57.806 16.516 89.402V26.211zm12.693 10.876 35.485 30.414H30.58zm123.87 0 35.485 30.414h-70.962zm60.862 30.415-48.169-41.29 48.169-41.29h10.405l48.169 41.29-48.169 41.29zm134.277-82.581 48.169 41.29-48.169 41.29h-2.147l-48.169-41.29 48.169-41.29zm25.377 0h70.962L445.936 46.93zm-88.386 30.415L286.58 16.516h70.962zm0 21.751 35.485 30.414h-70.962zm123.87 0 35.485 30.414h-70.962zm12.693-10.876 36.856-31.595v63.182zm-20.951 437.678H74.323c-31.876 0-57.806-25.93-57.806-57.806V115.613h478.968v322.065c-.001 31.876-25.931 57.806-57.808 57.806z" fill="#13c5dd" data-original="#000000" class=""></path><path d="M123.871 355.097c13.659 0 24.774-11.115 24.774-24.774s-11.115-24.774-24.774-24.774-24.774 11.115-24.774 24.774 11.115 24.774 24.774 24.774zm0-33.032c4.55 0 8.258 3.708 8.258 8.258s-3.708 8.258-8.258 8.258-8.258-3.708-8.258-8.258 3.708-8.258 8.258-8.258z" fill="#13c5dd" data-original="#000000" class=""></path><path d="M445.696 305.548a33.126 33.126 0 0 0-19.34 6.194l-29.655 21.174a1122.4 1122.4 0 0 0-30.571-14.873c22.388-18.242 29.58-42.067 29.927-43.231l3.072-10.554h-11c-19.018 0-50.143-5.905-87.651-16.615-30.258-8.638-60.87-8.431-88.543.636-12.536 4.104-23.676 9.67-33.297 16.45-94.01 4.864-145.606 68.625-145.606 90.368 0 21.942 52.513 86.619 148.1 90.467 14.559 15.847 38.722 33.404 74.868 33.404h8.258v-46.575a517.238 517.238 0 0 0 13.452-4.294c10.917 11.256 27.045 17.837 44.354 17.837 31.876 0 57.806-22.222 57.806-49.548 0-3.419-.462-6.813-1.288-10.157a1072.657 1072.657 0 0 0 18.126-8.96l29.646 21.174a33.06 33.06 0 0 0 19.34 6.202c18.341 0 33.272-14.931 33.272-33.272V338.83c.002-18.351-14.929-33.282-33.27-33.282zM217.08 263.969c24.518-8.035 51.786-8.192 78.856-.454 23.535 6.722 54.949 14.551 79.996 16.69-4.451 8.572-12.874 20.893-27.07 29.944-42.108-18.804-94.258-38.656-136.927-44.288 1.701-.637 3.378-1.306 5.145-1.892zM49.548 355.097c0-12.552 47.137-74.323 140.387-74.323 65.23 0 175.451 54.371 213.677 74.323-38.227 19.951-148.414 74.323-213.677 74.323-15.385 0-29.39-1.8-42.257-4.666 10.76-9.365 19.976-20.183 27.508-32.025 7.019 2.403 14.84 3.658 23.007 3.658 27.78 0 49.548-14.509 49.548-33.032s-21.768-33.032-49.548-33.032c-.322 0-.644.033-.966.041.611-5.467.966-10.983.966-16.557h-16.516c0 41.86-20.026 80.954-53.71 105.497-19.208-6.648-34.791-15.839-46.955-25.27 17.813-17.994 18.085-37.987 18.085-38.937H82.581c0 .165-.537 14.79-14.146 28.053-12.528-12.305-18.887-23.47-18.887-28.053zm144.773-7.961c1.297-.083 2.56-.297 3.873-.297 18.911 0 33.032 8.721 33.032 16.516s-14.121 16.516-33.032 16.516c-5.17 0-10.166-.727-14.749-1.965a146.559 146.559 0 0 0 10.876-30.77zm53.421 114.936c-18.036-1.676-32.091-8.721-42.752-16.929 13.37-1.288 27.838-4.154 42.752-8.06zm115.613-65.685c0 18.217-18.523 33.032-41.29 33.032-9.802 0-18.969-2.791-26.252-7.672 23.891-8.787 47.154-18.837 67.237-28.16.098.934.305 1.867.305 2.8zm99.097-25.014c0 9.241-7.515 16.756-16.756 16.756-3.51 0-6.879-1.082-9.745-3.122l-22.743-16.244a733.924 733.924 0 0 0 11.966-6.441l12.99-7.226-12.99-7.218c-.941-.52-5.194-2.874-11.966-6.441l22.751-16.252a16.634 16.634 0 0 1 9.736-3.122c9.241 0 16.756 7.515 16.756 16.756v32.554zM57.806 297.29c13.659 0 24.774-11.115 24.774-24.774s-11.115-24.774-24.774-24.774-24.774 11.115-24.774 24.774 11.116 24.774 24.774 24.774zm0-33.032c4.55 0 8.258 3.708 8.258 8.258s-3.708 8.258-8.258 8.258-8.258-3.708-8.258-8.258 3.708-8.258 8.258-8.258zM82.581 239.484c18.217 0 33.032-14.815 33.032-33.032s-14.815-33.032-33.032-33.032-33.032 14.815-33.032 33.032 14.814 33.032 33.032 33.032zm0-49.549c9.109 0 16.516 7.407 16.516 16.516s-7.407 16.516-16.516 16.516-16.516-7.407-16.516-16.516c0-9.108 7.407-16.516 16.516-16.516zM148.645 181.677c13.659 0 24.774-11.115 24.774-24.774s-11.115-24.774-24.774-24.774-24.774 11.115-24.774 24.774 11.115 24.774 24.774 24.774zm0-33.032c4.55 0 8.258 3.708 8.258 8.258s-3.708 8.258-8.258 8.258-8.258-3.708-8.258-8.258 3.708-8.258 8.258-8.258zM454.194 231.226c-13.659 0-24.774 11.115-24.774 24.774s11.115 24.774 24.774 24.774 24.774-11.115 24.774-24.774-11.116-24.774-24.774-24.774zm0 33.032c-4.55 0-8.258-3.708-8.258-8.258s3.708-8.258 8.258-8.258 8.258 3.708 8.258 8.258-3.708 8.258-8.258 8.258zM313.806 206.452c13.659 0 24.774-11.115 24.774-24.774s-11.115-24.774-24.774-24.774-24.774 11.115-24.774 24.774 11.116 24.774 24.774 24.774zm0-33.033c4.55 0 8.258 3.708 8.258 8.258s-3.708 8.258-8.258 8.258-8.258-3.708-8.258-8.258 3.708-8.258 8.258-8.258z" fill="#13c5dd" data-original="#000000" class=""></path></g></svg>