<svg xmlns="http://www.w3.org/2000/svg" version="1.1" xmlns:xlink="http://www.w3.org/1999/xlink" xmlns:svgjs="http://svgjs.com/svgjs" width="512" height="512" x="0" y="0" viewBox="0 0 512 512" style="enable-background:new 0 0 512 512" xml:space="preserve" class=""><g><path d="M407.2 504.279h37.3c33.14 0 60-26.86 60-60v-160.46h-30v160.46c0 16.57-13.43 30-30 30h-377c-16.57 0-30-13.43-30-30v-160.46h-30v160.46c0 33.14 26.86 60 60 60h324.7" style="stroke-width:15;stroke-miterlimit:10;" fill="none" stroke="#13c5dd" stroke-width="15" stroke-miterlimit="10" data-original="#000000" class=""></path><path d="M37.5 312.287c8.947 0 21.369 16 31.213 16 9.843 0 21.368-16 31.211-16s21.369 16 31.212 16 21.369-16 31.213-16c9.844 0 21.371 16 31.214 16 9.844 0 21.371-16 31.215-16 9.843 0 21.367 16 31.21 16s21.368-16 31.211-16c9.844 0 21.371 16 31.215 16 9.844 0 21.371-16 31.215-16 9.844 0 21.373 16 31.217 16 9.844 0 21.372-16 31.216-16 9.845 0 21.375 16 31.22 16s23.422-16 31.22-16M247.585 417.046s-20.914 27.439-46.714 27.439-46.714-27.439-46.714-27.439 20.914-27.439 46.714-27.439 46.714 27.439 46.714 27.439zM284.157 438.525l-36.572-21.479" style="stroke-width:15;stroke-miterlimit:10;" fill="none" stroke="#13c5dd" stroke-width="15" stroke-miterlimit="10" data-original="#000000" class=""></path><circle cx="101.152" cy="391.074" r="25" style="stroke-width:15;stroke-miterlimit:10;" fill="none" stroke="#13c5dd" stroke-width="15" stroke-miterlimit="10" data-original="#000000" class=""></circle><circle cx="324.494" cy="373.074" r="15" style="stroke-width:15;stroke-miterlimit:10;" fill="none" stroke="#13c5dd" stroke-width="15" stroke-miterlimit="10" data-original="#000000" class=""></circle><path d="M415.513 400.811s-11.433 15-25.537 15c-14.103 0-25.537-15-25.537-15s11.433-15 25.537-15 25.537 15 25.537 15zM435.506 416.553l-19.99-15.742M415.516 400.811l19.99-15.742M247.585 417.046l36.572-21.479M194.89 98.119H346c8.28 0 15 6.71 15 15v35H101v-35c0-8.29 6.72-15 15-15h63.89M464 133.117v-20c0-11.046 8.954-20 20-20h20v60h-20c-11.046 0-20-8.955-20-20z" style="stroke-width:15;stroke-miterlimit:10;" fill="none" stroke="#13c5dd" stroke-width="15" stroke-miterlimit="10" data-original="#000000" class=""></path><path d="M346 148.115v17c0 63.513-51.487 115-115 115s-115-51.487-115-115v-17" style="stroke-width:15;stroke-miterlimit:10;" fill="none" stroke="#13c5dd" stroke-width="15" stroke-miterlimit="10" data-original="#000000" class=""></path><path d="M397.5 71.617h30v103h-30z" style="stroke-width:15;stroke-miterlimit:10;" transform="rotate(90 412.5 123.117)" fill="none" stroke="#13c5dd" stroke-width="15" stroke-miterlimit="10" data-original="#000000" class=""></path><path d="M124.04 98.119c-25.09-39.54-22.61-90.33-22.61-90.33s68.01-3.32 107.91 36.58c15.55 15.55 24.54 35.36 29.71 53.75" style="stroke-width:15;stroke-miterlimit:10;" fill="none" stroke="#13c5dd" stroke-width="15" stroke-miterlimit="10" data-original="#000000" class=""></path><path d="M164.484 17.448c1.393 16.313-3.635 32.739-12.141 41.246-8.507 8.506-24.94 13.541-41.253 12.148M246.99 98.119c2.29-3.05 4.81-5.99 7.58-8.76 32.53-32.54 87.58-30.44 89.48-30.36h.05v.03c.04.83.74 18.2-4.2 39.09" style="stroke-width:15;stroke-miterlimit:10;" fill="none" stroke="#13c5dd" stroke-width="15" stroke-miterlimit="10" data-original="#000000" class=""></path><path d="m389.005 51.718-37.644-37.644c-8.393 22.694-7.311 44.955-7.311 44.955s22.26 1.082 44.955-7.311zM116 148.115l117 117M187.902 148.115l110 110M334.02 216.259l-68.15-68.14M207.53 148.119 132 223.649M345.6 151.469l-127.89 127.89M278.24 148.119l-112.02 112.02M237.309 362.776h15M267.309 362.776h15" style="stroke-width:15;stroke-miterlimit:10;" fill="none" stroke="#13c5dd" stroke-width="15" stroke-miterlimit="10" data-original="#000000" class=""></path></g></svg>