<svg xmlns="http://www.w3.org/2000/svg" version="1.1" xmlns:xlink="http://www.w3.org/1999/xlink" xmlns:svgjs="http://svgjs.com/svgjs" width="512" height="512" x="0" y="0" viewBox="0 0 300 300" style="enable-background:new 0 0 512 512" xml:space="preserve" class=""><g><path d="m37.93 61.79 18.285-10.059a16.081 16.081 0 0 1 15.57 0l8.57 4.715c7.297 4.012 15.992 4.012 23.289 0l8.57-4.715a16.081 16.081 0 0 1 15.57 0l8.57 4.715c7.297 4.012 15.992 4.012 23.289 0l8.57-4.715a16.081 16.081 0 0 1 15.57 0l8.57 4.715c7.297 4.012 15.992 4.012 23.289 0l8.57-4.715a16.081 16.081 0 0 1 15.57 0l18.285 10.059a3.998 3.998 0 0 0 5.434-1.576 4 4 0 0 0-1.574-5.432l-18.285-10.059c-7.297-4.012-15.992-4.012-23.289 0l-8.57 4.715a16.081 16.081 0 0 1-15.57 0l-8.57-4.715c-7.297-4.012-15.992-4.012-23.289 0l-8.57 4.715a16.081 16.081 0 0 1-15.57 0l-8.57-4.715c-7.297-4.012-15.992-4.012-23.289 0l-8.57 4.715a16.081 16.081 0 0 1-15.57 0l-8.57-4.715c-7.297-4.012-15.992-4.012-23.289 0L34.071 54.782a3.997 3.997 0 0 0-1.574 5.432 3.997 3.997 0 0 0 5.433 1.576zM112.102 88.446c-8.443-4.219-17.295-4.03-22.8-.129l-9.579-15.4c-.77-1.229-2.238-1.945-3.582-1.883a4.006 4.006 0 0 0-3.395 2.207L62.012 94.708a4.001 4.001 0 0 0 3.927 5.773l18.115-1.58c.072 2.54.779 5.181 2.241 7.738 2.414 4.227 6.496 7.93 11.496 10.43 4.074 2.035 8.422 3.105 12.504 3.105.93 0 1.844-.055 2.738-.166 5.348-.668 9.57-3.371 11.59-7.412 4.01-8.023-1.49-18.631-12.521-24.15zm-39.734 3.445 4.336-8.678 4.898 7.871zm45.097 17.129c-1.102 2.201-3.871 2.855-5.426 3.049-3.219.408-7.117-.381-10.672-2.156-3.551-1.775-6.512-4.414-8.129-7.242-.777-1.361-1.918-3.973-.816-6.174.969-1.936 3.684-3.156 7.211-3.156 2.637 0 5.734.684 8.891 2.262 7.379 3.689 10.633 10.032 8.941 13.417zM34.047 165.776a4.002 4.002 0 0 0 4.047-.082l15.456-9.489c3.178 5.952 11.011 10.081 20.45 10.081 12.336 0 22-7.027 22-16s-9.664-16-22-16c-9.439 0-17.272 4.129-20.45 10.081l-15.456-9.489a3.997 3.997 0 0 0-4.047-.082 3.994 3.994 0 0 0-2.047 3.49v24c0 1.449.782 2.783 2.047 3.49zM74 142.286c8.25 0 14 4.217 14 8s-5.75 8-14 8-14-4.217-14-8 5.75-8 14-8zm-34 3.148 7.902 4.852L40 155.137zM126.211 179.737c-1.488-4.268-5.336-7.484-10.555-8.828-4.719-1.215-10.211-.865-15.492.975-5.277 1.844-9.797 4.996-12.73 8.881-1.771 2.346-2.849 4.874-3.245 7.38l-17.728-3.864a3.99 3.99 0 0 0-3.848 1.256 4.01 4.01 0 0 0-.781 3.971l7.914 22.658a4.001 4.001 0 0 0 6.879 1.209l11.492-14.09c1.872 1.719 4.258 3.052 7.11 3.787 1.848.475 3.816.711 5.848.711 3.145 0 6.438-.566 9.645-1.688 5.273-1.844 9.797-4.998 12.727-8.881 3.249-4.299 4.257-9.214 2.764-13.477zm-51.269 23.041-3.199-9.158 9.059 1.975zm42.121-14.385c-1.961 2.598-5.238 4.84-8.984 6.148-3.746 1.311-7.707 1.59-10.859.781-1.516-.391-4.184-1.393-4.992-3.719v-.002c-.812-2.324.648-4.768 1.594-6.018 1.961-2.598 5.234-4.84 8.984-6.148 2.34-.818 4.766-1.236 7.027-1.236 1.352 0 2.648.15 3.832.455 1.516.391 4.184 1.393 4.992 3.721.812 2.323-.649 4.768-1.594 6.018z" fill="#13c5dd" data-original="#000000" class=""></path><circle cx="144" cy="90.286" r="4.292" fill="#13c5dd" data-original="#000000" class=""></circle><circle cx="120" cy="74.286" r="4.292" fill="#13c5dd" data-original="#000000" class=""></circle><circle cx="68" cy="118.286" r="4.292" fill="#13c5dd" data-original="#000000" class=""></circle><circle cx="140" cy="198.286" r="4.292" fill="#13c5dd" data-original="#000000" class=""></circle><circle cx="120" cy="210.286" r="4.292" fill="#13c5dd" data-original="#000000" class=""></circle><circle cx="44" cy="198.286" r="4.292" fill="#13c5dd" data-original="#000000" class=""></circle><path d="M264 250.286h-33.118L228 241.637v-35.352h4c2.211 0 4-1.791 4-4v-12.737c1.257.448 2.591.737 4 .737 6.617 0 12-5.383 12-12v-63.967c0-8.828-7.173-16.01-16-16.03v-4.367c0-15.238-14.355-27.637-32-27.637s-32 12.398-32 27.637v4.367c-8.827.02-16 7.202-16 16.03v19.967h-17.118l-3.089-9.266a3.99 3.99 0 0 0-5.059-2.529 4 4 0 0 0-2.527 5.061l2.646 7.939c-4.038 1.934-6.854 6.027-6.854 10.795 0 6.617 5.383 12 12 12h1.118l3.089 9.266a4 4 0 0 0 5.059 2.529 4 4 0 0 0 2.527-5.061l-2.245-6.734H156v3.967c0 8.828 7.173 16.01 16 16.03v24.004c0 2.209 1.789 4 4 4h4v35.352l-2.882 8.648H36c-2.211 0-4 1.791-4 4s1.789 4 4 4h228c2.211 0 4-1.791 4-4s-1.789-4-4-4zm-42.881-4 1.333 4H208v-4zm-1.119-8h-12v-32h12zm-40-40v-4h48v4zm0-84h12.737c-.448 1.257-.737 2.591-.737 4 0 6.617 5.383 12 12 12s12-5.383 12-12c0-1.409-.289-2.743-.737-4H228v21.364l-8.973 3.845c-9.273 3.969-20.781 3.969-30.055 0L180 135.649zm28 4c0 2.205-1.793 4-4 4s-4-1.795-4-4 1.793-4 4-4 4 1.795 4 4zm0 31.972c4.925-.402 9.762-1.52 14.176-3.412L228 144.35v41.935h-20zm20-43.972h-48v-4c0-5.676 9.855-12 24-12s24 6.324 24 12zm-42.175 40.56c4.414 1.892 9.251 3.01 14.176 3.412v36.028h-20V144.35zM244 178.286c0 2.205-1.793 4-4 4s-4-1.795-4-4v-35.26c4.666 1.658 8 6.071 8 11.26zm0-63.967v23.999c-2.319-1.748-5.041-2.953-8-3.557V106.29c4.414.019 8 3.611 8 8.029zm-40-40.033c10.821 0 19.983 5.892 22.968 13.959-5.774-3.692-13.865-5.959-22.968-5.959s-17.194 2.267-22.968 5.959c2.985-8.068 12.147-13.959 22.968-13.959zm-40 40.033c0-4.418 3.587-8.01 8-8.03v27.996h-8zm-32 31.967a4.004 4.004 0 0 1 3.995-3.999l.005.001.012-.002H172v8h-36c-2.207 0-4-1.795-4-4zm32 15.966v-3.967h8v11.996c-4.413-.019-8-3.611-8-8.029zm36 44.034v32h-12v-32zm-13.118 40H200v4h-14.452z" fill="#13c5dd" data-original="#000000" class=""></path></g></svg>