<svg xmlns="http://www.w3.org/2000/svg" version="1.1" xmlns:xlink="http://www.w3.org/1999/xlink" xmlns:svgjs="http://svgjs.com/svgjs" width="512" height="512" x="0" y="0" viewBox="0 0 682.667 682.667" style="enable-background:new 0 0 512 512" xml:space="preserve" class=""><g><defs><clipPath id="a" clipPathUnits="userSpaceOnUse"><path d="M0 512h512V0H0Z" fill="#13c5dd" data-original="#000000"></path></clipPath></defs><g clip-path="url(#a)" transform="matrix(1.33333 0 0 -1.33333 0 682.667)"><path d="M0 0c4.244 17.914 21.783 29.919 40.356 26.854a3.021 3.021 0 0 1 3.368 2.038c4.713 14.144 18.05 24.343 33.773 24.343 17.958 0 32.805-13.304 35.241-30.596.246-1.744 1.962-2.879 3.673-2.456 14.793 3.66 30.159-4.79 34.861-19.458a2.974 2.974 0 0 1 2.453-2.031c11.919-1.583 21.112-11.797 21.095-24.156-.018-13.371-11.572-24.303-24.943-24.303H-10.332c-13.567 0-25.021 11.101-24.846 24.668C-34.965-8.58-18.865 2.489-3.8-2.129-2.15-2.634-.397-1.678 0 0Z" style="stroke-width:15;stroke-linecap:round;stroke-linejoin:round;stroke-miterlimit:10;stroke-dasharray:none;stroke-opacity:1" transform="translate(329.68 451.265)" fill="none" stroke="#13c5dd" stroke-width="15" stroke-linecap="round" stroke-linejoin="round" stroke-miterlimit="10" stroke-dasharray="none" stroke-opacity="" data-original="#000000" class=""></path><path d="M0 0h-31.704C-45.271 0-56.725 11.102-56.55 24.668c.213 16.517 16.313 27.586 31.378 22.969 1.65-.506 3.402.45 3.8 2.129C-17.129 67.679.411 79.685 18.984 76.62a3.019 3.019 0 0 1 3.367 2.037C27.064 92.802 40.402 103 56.125 103c17.958 0 32.805-13.304 35.241-30.596.246-1.744 1.962-2.879 3.673-2.455 14.793 3.66 30.158-4.791 34.86-19.458a2.978 2.978 0 0 1 2.454-2.032c11.918-1.583 21.112-11.796 21.095-24.156C153.43 10.932 141.875 0 128.504 0H32" style="stroke-width:15;stroke-linecap:round;stroke-linejoin:round;stroke-miterlimit:10;stroke-dasharray:none;stroke-opacity:1" transform="translate(64.052 375.58)" fill="none" stroke="#13c5dd" stroke-width="15" stroke-linecap="round" stroke-linejoin="round" stroke-miterlimit="10" stroke-dasharray="none" stroke-opacity="" data-original="#000000" class=""></path><path d="M0 0h56.264v-257.489c0-35.888-29.093-64.981-64.981-64.981h-367.039c-35.888 0-64.98 29.093-64.98 64.981V0h408.364" style="stroke-width:15;stroke-linecap:round;stroke-linejoin:round;stroke-miterlimit:10;stroke-dasharray:none;stroke-opacity:1" transform="translate(448.236 329.97)" fill="none" stroke="#13c5dd" stroke-width="15" stroke-linecap="round" stroke-linejoin="round" stroke-miterlimit="10" stroke-dasharray="none" stroke-opacity="" data-original="#000000" class=""></path><path d="M0 0h58.877c14.235 0 25.774 11.54 25.774 25.774v.001c0 23.828-19.316 43.145-43.145 43.145H0c-11.989 0-21.709-9.719-21.709-21.709V21.709C-21.709 9.719-11.989 0 0 0Z" style="stroke-width:15;stroke-linecap:round;stroke-linejoin:round;stroke-miterlimit:10;stroke-dasharray:none;stroke-opacity:1" transform="translate(119.285 186.994)" fill="none" stroke="#13c5dd" stroke-width="15" stroke-linecap="round" stroke-linejoin="round" stroke-miterlimit="10" stroke-dasharray="none" stroke-opacity="" data-original="#000000" class=""></path><path d="M0 0h15.087v16.423C15.087 29.444 4.531 40-8.49 40h-14.053a2.37 2.37 0 0 1-2.37-2.37V24.914C-24.913 11.154-13.759 0 0 0Z" style="stroke-width:15;stroke-linecap:round;stroke-linejoin:round;stroke-miterlimit:10;stroke-dasharray:none;stroke-opacity:1" transform="translate(82.49 221.454)" fill="none" stroke="#13c5dd" stroke-width="15" stroke-linecap="round" stroke-linejoin="round" stroke-miterlimit="10" stroke-dasharray="none" stroke-opacity="" data-original="#000000" class=""></path><path d="M0 0h14.054c13.021 0 23.577 10.556 23.577 23.577V40H18.626C7.03 40-2.369 30.6-2.369 19.004V2.37C-2.369 1.061-1.309 0 0 0Z" style="stroke-width:15;stroke-linecap:round;stroke-linejoin:round;stroke-miterlimit:10;stroke-dasharray:none;stroke-opacity:1" transform="translate(59.945 181.454)" fill="none" stroke="#13c5dd" stroke-width="15" stroke-linecap="round" stroke-linejoin="round" stroke-miterlimit="10" stroke-dasharray="none" stroke-opacity="" data-original="#000000" class=""></path><path d="M0 0h17.529c11.278 0 20.418 9.142 20.418 20.418V30H16.13C6.088 30-2.053 21.86-2.053 11.818V2.053C-2.053.919-1.134 0 0 0Z" style="stroke-width:15;stroke-linecap:round;stroke-linejoin:round;stroke-miterlimit:10;stroke-dasharray:none;stroke-opacity:1" transform="translate(130.948 156.994)" fill="none" stroke="#13c5dd" stroke-width="15" stroke-linecap="round" stroke-linejoin="round" stroke-miterlimit="10" stroke-dasharray="none" stroke-opacity="" data-original="#000000" class=""></path><path d="M0 0h17.529c11.277 0 20.418-9.142 20.418-20.418V-30H16.13C6.088-30-2.053-21.859-2.053-11.817v9.765C-2.053-.919-1.134 0 0 0Z" style="stroke-width:15;stroke-linecap:round;stroke-linejoin:round;stroke-miterlimit:10;stroke-dasharray:none;stroke-opacity:1" transform="translate(115.6 285.914)" fill="none" stroke="#13c5dd" stroke-width="15" stroke-linecap="round" stroke-linejoin="round" stroke-miterlimit="10" stroke-dasharray="none" stroke-opacity="" data-original="#000000" class=""></path><path d="M0 0a42.952 42.952 0 0 0 20.889 5.385h41.507c11.989 0 21.708-9.719 21.708-21.709v-25.502c0-11.989-9.719-21.709-21.708-21.709H3.519c-14.236 0-25.776 11.539-25.776 25.774v.001c0 4.673.743 9.173 2.118 13.387" style="stroke-width:15;stroke-linecap:round;stroke-linejoin:round;stroke-miterlimit:10;stroke-dasharray:none;stroke-opacity:1" transform="translate(313.563 156.208)" fill="none" stroke="#13c5dd" stroke-width="15" stroke-linecap="round" stroke-linejoin="round" stroke-miterlimit="10" stroke-dasharray="none" stroke-opacity="" data-original="#000000" class=""></path><path d="M0 0h-15.086v16.423C-15.086 29.444-4.53 40 8.49 40h14.054a2.37 2.37 0 0 0 2.37-2.37V24.914C24.914 11.154 13.76 0 0 0Z" style="stroke-width:15;stroke-linecap:round;stroke-linejoin:round;stroke-miterlimit:10;stroke-dasharray:none;stroke-opacity:1" transform="translate(412.753 127.133)" fill="none" stroke="#13c5dd" stroke-width="15" stroke-linecap="round" stroke-linejoin="round" stroke-miterlimit="10" stroke-dasharray="none" stroke-opacity="" data-original="#000000" class=""></path><path d="M0 0h-14.053C-27.074 0-37.63 10.556-37.63 23.577V40h19.005C-7.029 40 2.37 30.6 2.37 19.004V2.37A2.37 2.37 0 0 0 0 0Z" style="stroke-width:15;stroke-linecap:round;stroke-linejoin:round;stroke-miterlimit:10;stroke-dasharray:none;stroke-opacity:1" transform="translate(435.297 87.133)" fill="none" stroke="#13c5dd" stroke-width="15" stroke-linecap="round" stroke-linejoin="round" stroke-miterlimit="10" stroke-dasharray="none" stroke-opacity="" data-original="#000000" class=""></path><path d="M0 0h-17.53c-11.277 0-20.418 9.141-20.418 20.418V30h21.817c10.042 0 18.183-8.141 18.183-18.183V2.052A2.052 2.052 0 0 0 0 0Z" style="stroke-width:15;stroke-linecap:round;stroke-linejoin:round;stroke-miterlimit:10;stroke-dasharray:none;stroke-opacity:1" transform="translate(364.295 62.673)" fill="none" stroke="#13c5dd" stroke-width="15" stroke-linecap="round" stroke-linejoin="round" stroke-miterlimit="10" stroke-dasharray="none" stroke-opacity="" data-original="#000000" class=""></path><path d="M0 0h-17.529c-11.278 0-20.419-9.142-20.419-20.418V-30h21.818c10.041 0 18.182 8.141 18.182 18.183v9.765A2.052 2.052 0 0 1 0 0Z" style="stroke-width:15;stroke-linecap:round;stroke-linejoin:round;stroke-miterlimit:10;stroke-dasharray:none;stroke-opacity:1" transform="translate(379.644 191.593)" fill="none" stroke="#13c5dd" stroke-width="15" stroke-linecap="round" stroke-linejoin="round" stroke-miterlimit="10" stroke-dasharray="none" stroke-opacity="" data-original="#000000" class=""></path><path d="M0 0c0-11.045-8.954-20-20-20s-20 8.955-20 20c0 11.046 8.954 20 20 20S0 11.046 0 0Z" style="stroke-width:15;stroke-linecap:round;stroke-linejoin:round;stroke-miterlimit:10;stroke-dasharray:none;stroke-opacity:1" transform="translate(317.594 270.914)" fill="none" stroke="#13c5dd" stroke-width="15" stroke-linecap="round" stroke-linejoin="round" stroke-miterlimit="10" stroke-dasharray="none" stroke-opacity="" data-original="#000000" class=""></path><path d="M0 0c0-11.045-8.954-20-20-20-11.045 0-20 8.955-20 20 0 11.046 8.955 20 20 20C-8.954 20 0 11.046 0 0Z" style="stroke-width:15;stroke-linecap:round;stroke-linejoin:round;stroke-miterlimit:10;stroke-dasharray:none;stroke-opacity:1" transform="translate(161.334 81.892)" fill="none" stroke="#13c5dd" stroke-width="15" stroke-linecap="round" stroke-linejoin="round" stroke-miterlimit="10" stroke-dasharray="none" stroke-opacity="" data-original="#000000" class=""></path><path d="M0 0c0-11.046-8.954-20-20-20-11.045 0-20 8.954-20 20 0 11.045 8.955 20 20 20C-8.954 20 0 11.045 0 0Z" style="stroke-width:15;stroke-linecap:round;stroke-linejoin:round;stroke-miterlimit:10;stroke-dasharray:none;stroke-opacity:1" transform="translate(473.892 229.449)" fill="none" stroke="#13c5dd" stroke-width="15" stroke-linecap="round" stroke-linejoin="round" stroke-miterlimit="10" stroke-dasharray="none" stroke-opacity="" data-original="#000000" class=""></path></g></g></svg>