<svg xmlns="http://www.w3.org/2000/svg" version="1.1" xmlns:xlink="http://www.w3.org/1999/xlink" xmlns:svgjs="http://svgjs.com/svgjs" width="512" height="512" x="0" y="0" viewBox="0 0 682.667 682.667" style="enable-background:new 0 0 512 512" xml:space="preserve" class=""><g><defs><clipPath id="a" clipPathUnits="userSpaceOnUse"><path d="M0 512h512V0H0Z" fill="#13c5dd" data-original="#000000" class=""></path></clipPath></defs><g clip-path="url(#a)" transform="matrix(1.33333 0 0 -1.33333 0 682.667)"><path d="M0 0h-38.19c-4.42 0-8-3.59-8-8v-41.15" style="stroke-width:15;stroke-linecap:round;stroke-linejoin:round;stroke-miterlimit:10;stroke-dasharray:none;stroke-opacity:1" transform="translate(432.665 151.29)" fill="none" stroke="#13c5dd" stroke-width="15" stroke-linecap="round" stroke-linejoin="round" stroke-miterlimit="10" stroke-dasharray="none" stroke-opacity="" data-original="#000000" class=""></path><path d="M0 0v-34.43c0-13.889 11.271-25.16 25.16-25.16h3.861c13.899 0 25.169 11.271 25.169 25.16v80.16" style="stroke-width:15;stroke-linecap:round;stroke-linejoin:round;stroke-miterlimit:10;stroke-dasharray:none;stroke-opacity:1" transform="translate(386.475 67.14)" fill="none" stroke="#13c5dd" stroke-width="15" stroke-linecap="round" stroke-linejoin="round" stroke-miterlimit="10" stroke-dasharray="none" stroke-opacity="" data-original="#000000" class=""></path><path d="M0 0v344.29c0 4.95 4.02 8.97 8.97 8.97h9.92c4.96 0 8.98-4.02 8.98-8.97V0" style="stroke-width:15;stroke-linecap:round;stroke-linejoin:round;stroke-miterlimit:10;stroke-dasharray:none;stroke-opacity:1" transform="translate(399.635 151.29)" fill="none" stroke="#13c5dd" stroke-width="15" stroke-linecap="round" stroke-linejoin="round" stroke-miterlimit="10" stroke-dasharray="none" stroke-opacity="" data-original="#000000" class=""></path><path d="m0 0 43.891-43.891" style="stroke-width:15;stroke-linecap:round;stroke-linejoin:round;stroke-miterlimit:10;stroke-dasharray:none;stroke-opacity:1" transform="translate(460.61 136.751)" fill="none" stroke="#13c5dd" stroke-width="15" stroke-linecap="round" stroke-linejoin="round" stroke-miterlimit="10" stroke-dasharray="none" stroke-opacity="" data-original="#000000" class=""></path><path d="M0 0c.16.01.31.01.47.01 23.23 0 42.06-24.8 42.06-55.39 0-30.591-18.83-55.391-42.06-55.391-.16 0-.31 0-.47.01" style="stroke-width:15;stroke-linecap:round;stroke-linejoin:round;stroke-miterlimit:10;stroke-dasharray:none;stroke-opacity:1" transform="translate(427.505 269.82)" fill="none" stroke="#13c5dd" stroke-width="15" stroke-linecap="round" stroke-linejoin="round" stroke-miterlimit="10" stroke-dasharray="none" stroke-opacity="" data-original="#000000" class=""></path><path d="M0 0c.16.01.31.01.47.01 23.23 0 42.06-24.8 42.06-55.39 0-30.6-18.83-55.4-42.06-55.4-.16 0-.31 0-.47.009" style="stroke-width:15;stroke-linecap:round;stroke-linejoin:round;stroke-miterlimit:10;stroke-dasharray:none;stroke-opacity:1" transform="translate(427.505 380.61)" fill="none" stroke="#13c5dd" stroke-width="15" stroke-linecap="round" stroke-linejoin="round" stroke-miterlimit="10" stroke-dasharray="none" stroke-opacity="" data-original="#000000" class=""></path><path d="M0 0c.16.01.31.01.47.01 23.23 0 42.06-24.811 42.06-55.401C42.53-85.98 23.7-110.78.47-110.78c-.16 0-.31 0-.47.009" style="stroke-width:15;stroke-linecap:round;stroke-linejoin:round;stroke-miterlimit:10;stroke-dasharray:none;stroke-opacity:1" transform="translate(427.505 491.4)" fill="none" stroke="#13c5dd" stroke-width="15" stroke-linecap="round" stroke-linejoin="round" stroke-miterlimit="10" stroke-dasharray="none" stroke-opacity="" data-original="#000000" class=""></path><path d="M0 0c0-17.179-13.927-31.104-31.105-31.104C-48.284-31.104-62.21-17.179-62.21 0s13.926 31.105 31.105 31.105C-13.927 31.105 0 17.179 0 0Z" style="stroke-width:15;stroke-linecap:round;stroke-linejoin:round;stroke-miterlimit:10;stroke-dasharray:none;stroke-opacity:1" transform="translate(491.715 136.755)" fill="none" stroke="#13c5dd" stroke-width="15" stroke-linecap="round" stroke-linejoin="round" stroke-miterlimit="10" stroke-dasharray="none" stroke-opacity="" data-original="#000000" class=""></path><path d="M0 0c-7.697-7.697-20.178-7.697-27.876 0" style="stroke-width:15;stroke-linecap:round;stroke-linejoin:round;stroke-miterlimit:10;stroke-dasharray:none;stroke-opacity:1" transform="translate(192.843 297.621)" fill="none" stroke="#13c5dd" stroke-width="15" stroke-linecap="round" stroke-linejoin="round" stroke-miterlimit="10" stroke-dasharray="none" stroke-opacity="" data-original="#000000" class=""></path><path d="M0 0v-15" style="stroke-width:15;stroke-linecap:round;stroke-linejoin:round;stroke-miterlimit:10;stroke-dasharray:none;stroke-opacity:1" transform="translate(135.759 362.392)" fill="none" stroke="#13c5dd" stroke-width="15" stroke-linecap="round" stroke-linejoin="round" stroke-miterlimit="10" stroke-dasharray="none" stroke-opacity="" data-original="#000000" class=""></path><path d="M0 0v-15" style="stroke-width:15;stroke-linecap:round;stroke-linejoin:round;stroke-miterlimit:10;stroke-dasharray:none;stroke-opacity:1" transform="translate(222.052 362.392)" fill="none" stroke="#13c5dd" stroke-width="15" stroke-linecap="round" stroke-linejoin="round" stroke-miterlimit="10" stroke-dasharray="none" stroke-opacity="" data-original="#000000" class=""></path><path d="m0 0-79.333 94.488c-2.787 3.324-1.328 8.415 2.805 9.742l10.044 3.239a6.109 6.109 0 0 1 3.934 7.69l-14.063 43.649a3.87 3.87 0 0 0 2.259 4.792l26.291 10.438a3.875 3.875 0 0 0 5.121-2.419l.791-2.447L5.206 22.224l5.29-16.426C12.558-.584 4.312-5.14 0 0Z" style="stroke-width:15;stroke-linecap:round;stroke-linejoin:round;stroke-miterlimit:10;stroke-dasharray:none;stroke-opacity:1" transform="translate(168.099 55.031)" fill="none" stroke="#13c5dd" stroke-width="15" stroke-linecap="round" stroke-linejoin="round" stroke-miterlimit="10" stroke-dasharray="none" stroke-opacity="" data-original="#000000" class=""></path><path d="m0 0 79.5 94.354c2.793 3.325 1.338 8.416-2.792 9.753l-10.034 3.248a6.118 6.118 0 0 0-3.927 7.698l14.141 43.627a3.878 3.878 0 0 1-2.252 4.798l-26.278 10.48a3.878 3.878 0 0 1-5.126-2.406L-10.481 5.816C-12.556-.562-4.315-5.129 0 0Z" style="stroke-width:15;stroke-linecap:round;stroke-linejoin:round;stroke-miterlimit:10;stroke-dasharray:none;stroke-opacity:1" transform="translate(189.537 55.087)" fill="none" stroke="#13c5dd" stroke-width="15" stroke-linecap="round" stroke-linejoin="round" stroke-miterlimit="10" stroke-dasharray="none" stroke-opacity="" data-original="#000000" class=""></path><path d="M0 0c.17-2.311.26-4.641.26-7v-47.29c0-50.04-40.56-90.61-90.61-90.61-50.04 0-90.6 40.57-90.6 90.61V-7c0 2.359.09 4.689.26 7" style="stroke-width:15;stroke-linecap:round;stroke-linejoin:round;stroke-miterlimit:10;stroke-dasharray:none;stroke-opacity:1" transform="translate(269.25 394.07)" fill="none" stroke="#13c5dd" stroke-width="15" stroke-linecap="round" stroke-linejoin="round" stroke-miterlimit="10" stroke-dasharray="none" stroke-opacity="" data-original="#000000" class=""></path><path d="M0 0h4.59c6.78 0 12.91 2.75 17.35 7.19 4.44 4.44 7.19 10.57 7.19 17.35 0 13.55-10.989 24.53-24.54 24.53H-185.8c-6.769 0-12.91-2.75-17.349-7.18-4.441-4.44-7.191-10.57-7.191-17.35C-210.34 10.99-199.35 0-185.8 0h4.59" style="stroke-width:15;stroke-linecap:round;stroke-linejoin:round;stroke-miterlimit:10;stroke-dasharray:none;stroke-opacity:1" transform="translate(269.51 345)" fill="none" stroke="#13c5dd" stroke-width="15" stroke-linecap="round" stroke-linejoin="round" stroke-miterlimit="10" stroke-dasharray="none" stroke-opacity="" data-original="#000000" class=""></path><path d="M0 0c3.54 38.41 35.85 68.48 75.18 68.48h32.13c39.33 0 71.64-30.07 75.18-68.48" style="stroke-width:15;stroke-linecap:round;stroke-linejoin:round;stroke-miterlimit:10;stroke-dasharray:none;stroke-opacity:1" transform="translate(87.66 436.02)" fill="none" stroke="#13c5dd" stroke-width="15" stroke-linecap="round" stroke-linejoin="round" stroke-miterlimit="10" stroke-dasharray="none" stroke-opacity="" data-original="#000000" class=""></path><path d="M0 0v26.44c0 23.22 18.82 42.04 42.03 42.04 11.61 0 22.119-4.7 29.73-12.309 7.61-7.61 12.31-18.12 12.31-29.731V0" style="stroke-width:15;stroke-linecap:round;stroke-linejoin:round;stroke-miterlimit:10;stroke-dasharray:none;stroke-opacity:1" transform="translate(136.87 436.02)" fill="none" stroke="#13c5dd" stroke-width="15" stroke-linecap="round" stroke-linejoin="round" stroke-miterlimit="10" stroke-dasharray="none" stroke-opacity="" data-original="#000000" class=""></path><path d="M0 0v36.079c0 4.41 3.58 8 8 8h194.39c4.41 0 8-3.59 8-8V0" style="stroke-width:15;stroke-linecap:round;stroke-linejoin:round;stroke-miterlimit:10;stroke-dasharray:none;stroke-opacity:1" transform="translate(73.71 391.94)" fill="none" stroke="#13c5dd" stroke-width="15" stroke-linecap="round" stroke-linejoin="round" stroke-miterlimit="10" stroke-dasharray="none" stroke-opacity="" data-original="#000000" class=""></path><path d="M0 0v-42.9a4.087 4.087 0 0 1 4.149-4.09l8.161.09" style="stroke-width:15;stroke-linecap:round;stroke-linejoin:round;stroke-miterlimit:10;stroke-dasharray:none;stroke-opacity:1" transform="translate(214.99 256.65)" fill="none" stroke="#13c5dd" stroke-width="15" stroke-linecap="round" stroke-linejoin="round" stroke-miterlimit="10" stroke-dasharray="none" stroke-opacity="" data-original="#000000" class=""></path><path d="M0 0v-42.89c0-2.28-1.87-4.12-4.15-4.089l-8.06.089" style="stroke-width:15;stroke-linecap:round;stroke-linejoin:round;stroke-miterlimit:10;stroke-dasharray:none;stroke-opacity:1" transform="translate(142.82 256.64)" fill="none" stroke="#13c5dd" stroke-width="15" stroke-linecap="round" stroke-linejoin="round" stroke-miterlimit="10" stroke-dasharray="none" stroke-opacity="" data-original="#000000" class=""></path><path d="M0 0v27.54C0 63.44 29.32 92.42 65.21 92l19.96-.229" style="stroke-width:15;stroke-linecap:round;stroke-linejoin:round;stroke-miterlimit:10;stroke-dasharray:none;stroke-opacity:1" transform="translate(7.5 118.42)" fill="none" stroke="#13c5dd" stroke-width="15" stroke-linecap="round" stroke-linejoin="round" stroke-miterlimit="10" stroke-dasharray="none" stroke-opacity="" data-original="#000000" class=""></path><path d="m0 0 19.83.229C55.721.649 85.04-28.33 85.04-64.23v-126.89c0-6.391-5.18-11.57-11.569-11.57h-319.67c-6.391 0-11.571 5.179-11.571 11.57v64.349" style="stroke-width:15;stroke-linecap:round;stroke-linejoin:round;stroke-miterlimit:10;stroke-dasharray:none;stroke-opacity:1" transform="translate(265.27 210.19)" fill="none" stroke="#13c5dd" stroke-width="15" stroke-linecap="round" stroke-linejoin="round" stroke-miterlimit="10" stroke-dasharray="none" stroke-opacity="" data-original="#000000" class=""></path><path d="M0 0a72.399 72.399 0 0 1 75.62 0" style="stroke-width:15;stroke-linecap:round;stroke-linejoin:round;stroke-miterlimit:10;stroke-dasharray:none;stroke-opacity:1" transform="translate(141.09 210.42)" fill="none" stroke="#13c5dd" stroke-width="15" stroke-linecap="round" stroke-linejoin="round" stroke-miterlimit="10" stroke-dasharray="none" stroke-opacity="" data-original="#000000" class=""></path><path d="M0 0v-53.329" style="stroke-width:15;stroke-linecap:round;stroke-linejoin:round;stroke-miterlimit:10;stroke-dasharray:none;stroke-opacity:1" transform="translate(178.904 60.83)" fill="none" stroke="#13c5dd" stroke-width="15" stroke-linecap="round" stroke-linejoin="round" stroke-miterlimit="10" stroke-dasharray="none" stroke-opacity="" data-original="#000000" class=""></path><path d="M0 0v91.14" style="stroke-width:15;stroke-linecap:round;stroke-linejoin:round;stroke-miterlimit:10;stroke-dasharray:none;stroke-opacity:1" transform="translate(79.5 7.5)" fill="none" stroke="#13c5dd" stroke-width="15" stroke-linecap="round" stroke-linejoin="round" stroke-miterlimit="10" stroke-dasharray="none" stroke-opacity="" data-original="#000000" class=""></path><path d="M0 0v91.14" style="stroke-width:15;stroke-linecap:round;stroke-linejoin:round;stroke-miterlimit:10;stroke-dasharray:none;stroke-opacity:1" transform="translate(278.31 7.5)" fill="none" stroke="#13c5dd" stroke-width="15" stroke-linecap="round" stroke-linejoin="round" stroke-miterlimit="10" stroke-dasharray="none" stroke-opacity="" data-original="#000000" class=""></path></g></g></svg>