<svg xmlns="http://www.w3.org/2000/svg" version="1.1" xmlns:xlink="http://www.w3.org/1999/xlink" xmlns:svgjs="http://svgjs.com/svgjs" width="512" height="512" x="0" y="0" viewBox="0 0 512 512" style="enable-background:new 0 0 512 512" xml:space="preserve" class=""><g><path d="M149.977 230.504c7.367 8.957 22.125 4.64 24.585-7.043.387-1.836.524.465-5.003-38.824 11.699 9.097 23.359 17.05 36.625 24.562 3.644 2.067 8.28.781 10.347-2.863a7.586 7.586 0 0 0-2.863-10.348c-15.137-8.578-29.719-18.773-43.316-30.304-37.52-31.797-32.457-27.024-59.598-54.16 40.7-13.86 62.762-47.169 64.39-87.81 69.774 22.716 102.59 74.798 112.75 145.99.586 4.128 2.297 17.636 2.297 21.75 0 8.366-4.39 16.015-11.378 20.167-8.266 4.988-15.504 3.16-22.024 1.902-6.195-1.171-11.95-2.468-16.746-4.464-3.867-1.598-8.313.234-9.922 4.101-1.613 3.867.223 8.313 4.09 9.922 9.176 3.813 25.281 6.574 29.242 6.914l26.254 64.227c5.766 14.078 24.285 18.828 33.402 8.172l71.688-83.665c9.41-10.98 1.074-28.937-13.965-31.937l-77.367-15.379c-1.426-11.016-3.32-21.437-5.688-31.277l25.828-7.586c6.676-1.028 12.461-6.438 12.657-15.156 0-10.227-2.094-21.04-6.239-32.125a7.584 7.584 0 0 0-9.757-4.47 7.59 7.59 0 0 0-4.465 9.774c4.234 11.387 5.558 21.989 5.262 26.992-1.008.13.406-.218-27.286 7.918-14.644-47.879-42.004-80.406-79.25-101.09l38.223-9.113a11.326 11.326 0 0 1 7.582 2.492c11.332 9.145 29.223 27.024 42.356 47.293 1.449 2.25 3.886 3.465 6.378 3.465 5.977 0 9.649-6.656 6.368-11.726C297.25 28.727 274.297 9.52 269.87 5.957 263.441.77 254.445-.793 249.844.359l-57.176 13.637a227.364 227.364 0 0 0-8.7-3.32C143.966-3.625 106.79 2.78 98.774 5.57l-.007-.039c-34.832 9.246-42.141 27.836-42.141 41.797 0 28.711 30.41 62.188 50.832 82.61.262 1.789 16.52 68.94 42.52 100.566zm2.214-60.297 6.59 46.856c-13.172-18.122-23.594-46.657-29.86-66.727 3.298 3.008-.366-.16 23.27 19.871zm151.145 79.617a7.582 7.582 0 0 0 6.398 3.492c5.957 0 9.645-6.62 6.391-11.695l-17.844-27.781a37.963 37.963 0 0 0 3.79-6.703c34.241 15.156 32.491 14.648 34.679 14.648 8.14 0 10.578-11.21 3.078-14.539l-34.457-15.258c.035-.672 0-2.64-.203-4.75l72.7 14.461c4.366.867 6.57 5.785 5.394 7.149-77.348 90.273-71.516 84.496-73.942 84.097-1.984-.324-4.476-1.832-5.558-4.472l-24.676-60.348a38.664 38.664 0 0 0 7.937-3.715zM71.812 47.328c0-28.387 53.02-34.867 88.231-27.601-.027 36.925-19.473 68.187-60.531 79.37-18.414-21.445-27.7-38.777-27.7-51.769zm0 0" fill="#13c5dd" data-original="#000000" class=""></path><path d="M131.785 29.2c-5.844-5.005-14.637-4.329-19.644 1.515s-4.329 14.64 1.515 19.648c5.84 5.004 14.637 4.328 19.645-1.515 5.008-5.844 4.328-14.641-1.516-19.649zM7.598 390.543c20.343 0 21.46 23.969 49.672 23.969 28.203 0 29.335-23.969 49.687-23.969 20.223 0 21.535 23.969 49.672 23.969 28.27 0 29.316-23.969 49.687-23.969 20.34 0 21.465 23.969 49.672 23.969 28.203 0 29.336-23.969 49.688-23.969 20.336 0 21.465 23.969 49.672 23.969 28.09 0 29.476-23.969 49.683-23.969 20.348 0 21.48 23.969 49.688 23.969 28.27 0 29.312-23.969 49.683-23.969a7.594 7.594 0 0 0 0-15.188c-28.21 0-29.332 23.97-49.683 23.97-20.332 0-21.477-23.97-49.688-23.97-28.11 0-29.441 23.97-49.683 23.97-20.344 0-21.461-23.97-49.672-23.97-28.27 0-29.317 23.97-49.688 23.97-20.34 0-21.46-23.97-49.672-23.97-28.21 0-29.332 23.97-49.687 23.97-20.2 0-21.61-23.97-49.672-23.97-28.27 0-29.316 23.97-49.687 23.97-20.336 0-21.465-23.97-49.672-23.97a7.594 7.594 0 0 0 0 15.188zM7.594 438.984c20.343 0 21.465 23.97 49.68 23.97 28.175 0 29.359-23.97 49.68-23.97 20.343 0 21.464 23.97 49.679 23.97 28.234 0 29.324-23.97 49.68-23.97 20.347 0 21.46 23.97 49.68 23.97 28.175 0 29.355-23.97 49.675-23.97 20.344 0 21.473 23.97 49.684 23.97 28.238 0 29.324-23.97 49.68-23.97 20.343 0 21.472 23.97 49.687 23.97 28.234 0 29.328-23.97 49.683-23.97a7.594 7.594 0 0 0 0-15.187c-28.234 0-29.328 23.965-49.683 23.965-20.348 0-21.473-23.965-49.688-23.965-28.238 0-29.324 23.965-49.68 23.965-20.34 0-21.472-23.965-49.683-23.965-28.172 0-29.356 23.965-49.676 23.965-20.344 0-21.465-23.965-49.68-23.965-28.234 0-29.324 23.965-49.68 23.965-20.343 0-21.464-23.965-49.679-23.965-28.176 0-29.355 23.965-49.68 23.965-20.343 0-21.464-23.965-49.68-23.965a7.594 7.594 0 0 0 0 15.188zM504.406 472.234c-28.238 0-29.328 23.97-49.687 23.97-20.344 0-21.473-23.97-49.688-23.97-28.234 0-29.32 23.97-49.68 23.97-20.34 0-21.472-23.97-49.68-23.97-28.175 0-29.355 23.97-49.679 23.97-20.344 0-21.46-23.97-49.676-23.97-28.238 0-29.328 23.97-49.683 23.97-20.344 0-21.465-23.97-49.676-23.97-28.176 0-29.36 23.97-49.68 23.97-20.347 0-21.465-23.97-49.68-23.97a7.594 7.594 0 0 0 0 15.188c20.344 0 21.462 23.969 49.68 23.969 28.176 0 29.356-23.97 49.68-23.97 20.344 0 21.465 23.97 49.676 23.97 28.238 0 29.328-23.97 49.683-23.97 20.344 0 21.457 23.97 49.676 23.97 28.176 0 29.36-23.97 49.68-23.97 20.344 0 21.469 23.97 49.68 23.97 28.238 0 29.324-23.97 49.68-23.97 20.347 0 21.472 23.97 49.687 23.97 28.234 0 29.328-23.97 49.687-23.97a7.594 7.594 0 0 0 0-15.188zM427.402 317.633a7.597 7.597 0 0 0 7.532-6.711c.062-.55 1.77-13.41 19.343-13.41a7.594 7.594 0 0 0 0-15.188c-24.75 0-33.343 17.551-34.43 26.832-.523 4.504 2.993 8.477 7.555 8.477zM29.71 312.309c.552.035 13.481 1.07 14.395 18.62.22 4.188 3.793 7.407 7.98 7.188s7.407-3.789 7.188-7.976c-1.289-24.72-19.261-32.387-28.586-32.989-4.519-.289-8.308 3.422-8.07 7.985a7.592 7.592 0 0 0 7.094 7.172zM247.73 333.195c-.527.157-13.03 3.614-19.902-12.562-1.637-3.863-6.094-5.66-9.957-4.024a7.6 7.6 0 0 0-4.023 9.961c8.132 19.145 25.144 25.012 38.156 21.2a7.592 7.592 0 0 0 5.148-9.422c-1.175-4.024-5.398-6.328-9.422-5.153zM485.543 256.473c.61-.336 14.96-8.512 19.168-28.54a7.594 7.594 0 1 0-14.863-3.12c-2.707 12.89-11.25 18.124-11.746 18.417a7.594 7.594 0 0 0 7.441 13.243zM51.184 193.723c12.222 4.91 15.89 14.234 16.093 14.773 2.61 7.34 13.29 6.395 14.637-1.23.938-5.309-7.754-20.68-25.07-27.637a7.591 7.591 0 0 0-9.875 4.219 7.587 7.587 0 0 0 4.215 9.875zM167.414 285.016c-2.71 12.894-11.258 18.129-11.746 18.418-6.777 3.851-3.988 14.199 3.758 14.199 5.39 0 19.012-11.23 22.851-29.496a7.594 7.594 0 0 0-14.863-3.121zm0 0" fill="#13c5dd" data-original="#000000" class=""></path></g></svg>