<svg xmlns="http://www.w3.org/2000/svg" version="1.1" xmlns:xlink="http://www.w3.org/1999/xlink" xmlns:svgjs="http://svgjs.com/svgjs" width="512" height="512" x="0" y="0" viewBox="0 0 480.113 480.113" style="enable-background:new 0 0 512 512" xml:space="preserve" class=""><g><path d="M430.911 86.333c37.297-15.575 30.285-78.616-16.974-78.616H66.175c-47.331 0-54.236 63.056-16.974 78.616-118.02 154.083-11.662 386.062 190.855 386.062 202.214 0 308.998-231.823 190.855-386.062zM66.175 23.717h347.762c33.263 0 33.263 49.852 0 49.852H66.175c-33.263 0-33.263-49.852 0-49.852zm173.881 432.678c-165.176 0-259.144-162.926-211.675-298.402 18.558 3.952 37.596 1.522 53.594-5.906 18.108-8.41 39.73-8.41 57.841 0 22.327 10.369 48.989 10.369 71.32 0 18.108-8.41 39.73-8.41 57.841 0 22.33 10.369 48.99 10.369 71.32 0 18.106-8.41 39.729-8.411 57.842 0a83.878 83.878 0 0 0 13.678 4.952c10.227 2.732 14.351-12.733 4.123-15.459a67.853 67.853 0 0 1-11.062-4.005c-22.33-10.369-48.992-10.369-71.32 0-18.109 8.409-39.731 8.41-57.843 0-22.327-10.369-48.989-10.369-71.318 0-18.11 8.41-39.732 8.41-57.843 0-22.327-10.369-48.99-10.369-71.319 0-12.621 5.861-27.125 7.669-40.913 5.278 8.212-18.858 19.146-36.792 32.741-53.284h345.985C530.056 231.5 434.145 456.395 240.056 456.395z" fill="#13c5dd" data-original="#000000"></path><path d="M305.803 225.503c-33.022-73.014-158.098-48.471-125.656 18.244-5.998 5.445-11.806 11.564-17.4 18.308-13.196-17.585-33.75-27.361-54.851-27.361-5.07 0-8.863 4.663-7.833 9.627 6.76 32.535-7.982 38.825 3.198 59.993-11.206 21.217 3.585 27.35-3.198 59.994-1.03 4.964 2.763 9.627 7.833 9.627a68.762 68.762 0 0 0 30.071-6.953 7.998 7.998 0 0 0 3.693-10.693 7.997 7.997 0 0 0-10.693-3.693 52.64 52.64 0 0 1-13.542 4.456c3.342-29.926-8.441-32.57 1.826-48.381a8.001 8.001 0 0 0 0-8.713c-10.088-15.535 1.427-19.227-1.825-48.373 14.534 2.677 27.237 11.264 35.088 23.857a244.058 244.058 0 0 0-9.127 13.945 28.671 28.671 0 0 0 0 29.855c11.098 18.281 23.477 33.582 36.76 45.64-32.105 66.026 92.392 91.796 125.657 18.245 19.515-10.995 37.8-28.357 53.781-51.464 11.314-16.357 11.314-38.338 0-54.694-15.982-23.107-34.267-40.47-53.782-51.466zm-26.92-10.889c-30.389-7.651-59.965-.025-85.88 18.692-14.045-36.491 53.047-50.359 85.88-18.692zm-85.88 160.709c25.807 18.64 55.372 26.372 85.881 18.691-32.215 31.071-100.179 18.455-85.881-18.691zm153.422-52.763c-17.6 25.448-37.978 43.113-59.388 51.931-15.96-30.247-19.429-83.222-7.363-122.271a8 8 0 0 0-15.287-4.723c-13.025 42.155-9.639 97.394 7.157 131.783-48.366 10.031-88.82-26.074-114.481-68.343a12.725 12.725 0 0 1 .001-13.249c54.825-90.307 133.621-92.215 189.361-11.62 7.548 10.914 7.549 25.578 0 36.492z" fill="#13c5dd" data-original="#000000"></path><path d="M302.088 269.992a8 8 0 0 0-8 8v17.419a8 8 0 0 0 16 0v-17.419a8 8 0 0 0-8-8zM228.265 284.573c-5.358-6.079-5.358-12.244 0-18.323a7.999 7.999 0 0 0-.711-11.291 7.997 7.997 0 0 0-11.291.711c-10.734 12.177-10.734 27.307 0 39.484 5.359 6.078 5.359 12.243 0 18.322-10.735 12.178-10.735 27.307 0 39.482a8 8 0 1 0 12.002-10.58c-5.358-6.079-5.358-12.243 0-18.321 10.736-12.177 10.736-27.307 0-39.484zM387.637 168.814c-20.446 0-37.081 16.635-37.081 37.081s16.635 37.081 37.081 37.081 37.08-16.635 37.08-37.081-16.634-37.081-37.08-37.081zm0 58.162c-11.624 0-21.081-9.457-21.081-21.081s9.457-21.081 21.081-21.081 21.08 9.457 21.08 21.081-9.456 21.081-21.08 21.081zM404.669 261.089c-14.123 0-25.613 11.49-25.613 25.613s11.49 25.612 25.613 25.612 25.612-11.489 25.612-25.612-11.489-25.613-25.612-25.613zm0 35.225c-5.301 0-9.613-4.312-9.613-9.612 0-5.301 4.312-9.613 9.613-9.613 5.3 0 9.612 4.312 9.612 9.613.001 5.3-4.312 9.612-9.612 9.612zM60.927 188.863c-14.123 0-25.613 11.49-25.613 25.613s11.49 25.612 25.613 25.612 25.612-11.489 25.612-25.612-11.489-25.613-25.612-25.613zm0 35.226c-5.301 0-9.613-4.312-9.613-9.612 0-5.301 4.312-9.613 9.613-9.613 5.3 0 9.612 4.312 9.612 9.613 0 5.299-4.312 9.612-9.612 9.612z" fill="#13c5dd" data-original="#000000"></path></g></svg>