<svg xmlns="http://www.w3.org/2000/svg" version="1.1" xmlns:xlink="http://www.w3.org/1999/xlink" xmlns:svgjs="http://svgjs.com/svgjs" width="512" height="512" x="0" y="0" viewBox="0 0 512 512" style="enable-background:new 0 0 512 512" xml:space="preserve" class=""><g><path d="M24.4 407.9c25.722-1.3 49.815-15.726 71.726-42.909 13.227 14.877 42.767 41.171 78.743 42.9q1.944.093 3.874.093c27.735 0 53.682-14.465 77.282-43.075a157.907 157.907 0 0 0 18.017 17.558c18.96 15.679 39.321 24.471 58.883 25.426 28.543 1.367 55.105-13.03 79.18-42.892a158.151 158.151 0 0 0 17.5 17.1c18.6 15.507 38.608 24.395 57.853 25.7a8 8 0 0 0 1.086-15.963c-35.9-2.441-65.319-37.182-69.682-43.992a8 8 0 0 0-13.34-.581c-22.008 30.382-45.731 45.417-70.655 44.685-36.884-1.086-67.459-37.008-72.006-44.106a8 8 0 0 0-13.282-.657c-22.632 30.461-47.122 45.475-72.764 44.761-37.937-1.126-69.336-37.083-74-44.183a8 8 0 0 0-13.29-.492C68.93 375.728 46.748 390.745 23.6 391.917a8 8 0 1 0 .8 15.983zM100.62 488q1.192 0 2.395-.038c26.233-.84 50.8-15.285 73.117-42.97 13.224 14.875 42.756 41.163 78.733 42.9 29.238 1.4 56.521-13.07 81.238-43.071a159.668 159.668 0 0 0 17.741 17c18.7 15.306 38.817 24.254 58.182 25.877 29.43 2.467 57.05-11.153 82.062-40.486a8 8 0 1 0-12.176-10.381c-21.091 24.733-43.733 36.5-67.257 35.018-40.565-2.58-71.173-43.137-71.843-44.082a8 8 0 0 0-13.234-.577c-22.632 30.461-47.091 45.506-72.764 44.761-37.938-1.126-69.336-37.083-74-44.179a8 8 0 0 0-13.288-.493c-20.931 28.9-43.482 43.933-67.026 44.686-35.6 1.172-64.374-30.2-72.337-39.831a8 8 0 1 0-12.332 10.195C26.8 453.179 58.884 488 100.62 488zM464.629 31.338c-6.821-6.821-21.491-12.45-33.941 0-13.135 13.135-14.561 37.541-14.68 40.281A8 8 0 0 0 424 79.967c.115 0 .231 0 .348-.008a90.5 90.5 0 0 0 14.674-2.122c11.218-2.559 19.833-6.784 25.607-12.558 12.45-12.451 6.821-27.119 0-33.941zm-11.381 11.247.055.058-.076-.079zm.066 11.381c-4.716 4.717-13.105 7.373-20.063 8.751 1.378-6.961 4.034-15.349 8.751-20.065 2.095-2.095 3.8-2.692 5.246-2.692a6.428 6.428 0 0 1 1.8.282 12.071 12.071 0 0 1 4.262 2.412 12.071 12.071 0 0 1 2.413 4.263c.517 1.783.633 4.007-2.409 7.049zM295.652 79.959c.117 0 .233.008.348.008a8 8 0 0 0 7.992-8.348 90.386 90.386 0 0 0-2.122-14.675c-2.558-11.217-6.784-19.833-12.558-25.606-12.452-12.452-27.12-6.82-33.941 0s-12.45 21.49 0 33.94c13.135 13.136 37.541 14.562 40.281 14.681zm-29.034-37.24.058-.055a1.345 1.345 0 0 1-.078.076.167.167 0 0 1 .02-.021zm-2.343 4.2a12.071 12.071 0 0 1 2.413-4.263 12.071 12.071 0 0 1 4.262-2.412c1.776-.513 4-.634 7.049 2.41 4.717 4.717 7.373 13.106 8.751 20.064-6.961-1.378-15.349-4.034-20.064-8.751-3.042-3.043-2.926-5.267-2.411-7.05zM63.371 279.338c-6.821 6.822-12.45 21.49 0 33.94 13.135 13.136 37.541 14.562 40.281 14.681.117 0 .233.008.348.008a8 8 0 0 0 7.992-8.348 90.386 90.386 0 0 0-2.122-14.675c-2.558-11.217-6.784-19.833-12.558-25.606-12.451-12.451-27.119-6.82-33.941 0zm11.247 11.381.058-.055a1.345 1.345 0 0 1-.078.076.167.167 0 0 1 .02-.021zm.068 11.246c-3.042-3.041-2.926-5.27-2.411-7.048a12.071 12.071 0 0 1 2.413-4.263 12.071 12.071 0 0 1 4.262-2.412c1.775-.513 4-.634 7.049 2.41 4.717 4.717 7.373 13.106 8.751 20.064-6.961-1.378-15.35-4.034-20.064-8.751zM471.96 199.171c-4.38-43.8-22.811-69.342-37.5-83.053-16.223-15.14-31.614-19.658-32.261-19.844a8 8 0 0 0-8.855 3.256l-8.451 12.681C367.538 99.3 343.1 86.549 315.459 88.092c-19.484 1.081-31.4 8.887-31.9 9.219a8 8 0 0 0-3.559 6.656 172.56 172.56 0 0 0 13.455 66.333c5.977 13.976 14 25.367 24.366 34.551-7.2 5.663-11.329 11.914-12.318 18.668-1.125 7.675 1.85 15.112 8.84 22.1 9.088 9.086 17.544 9.735 23.038 8.681 10.456-2.006 18.25-11.415 23.668-21.2 3.32 2.431 6.375 4.9 9.1 7.165a78.763 78.763 0 0 1 7.609 7.153 40.021 40.021 0 0 0-18 6.876c-18.907 13.047-23.467 39.239-23.652 40.347a8 8 0 0 0 10.7 8.807c23.285-8.729 43.26-5.694 59.371 9.024a77.82 77.82 0 0 1 18.34 26.328 8 8 0 0 0 13.14 2.829c14.161-14.162 20.907-29.191 20.05-44.67-.914-16.5-10.4-28.885-16.219-35a112.158 112.158 0 0 0 6.453-41.664l20.5-13.664a8 8 0 0 0 3.519-7.46zm-163.793-35.159a156.218 156.218 0 0 1-12.089-55.279c9.452-4.227 36.57-12.276 72.932 11.845-6.927 19.733-20.9 49.441-46.014 66.917a82.3 82.3 0 0 1-14.829-23.483zm26.2 74.58c-2.472.47-5.395-.968-8.709-4.282-3.22-3.22-4.675-6.07-4.323-8.47.474-3.233 4.142-7.194 10.032-10.975 4.194 2.669 8.464 5.14 12.628 7.549 1.166.674 2.346 1.359 3.527 2.048-4.328 8.029-9.211 13.372-13.156 14.13zm107.365 59.247c.437 7.88-2.234 15.859-7.955 23.817a91.748 91.748 0 0 0-16.334-20.556c-10.065-9.346-25.25-18.533-46.04-18.533a77.252 77.252 0 0 0-15.321 1.584c2.628-5.928 6.706-12.525 12.82-16.721 5.994-4.114 13.036-5.289 21.529-3.589a8 8 0 0 0 9-10.8c-.86-3.352-3.6-12.253-19.069-25.086a162.54 162.54 0 0 0-18.273-13.434c-3.353-2.062-6.777-4.043-10.087-5.959-5.577-3.225-10.845-6.273-15.875-9.718l-.008.011c-.071-.049-.133-.106-.206-.152l-.1-.066a1.74 1.74 0 0 0-.083-.058c-.129-.089-.253-.184-.381-.273 15.666-11.806 33.83-32.312 47.042-67.667 3.954 3.319 7.97 7 11.952 10.983 22.667 22.667 35.23 47.71 37.342 74.433 2.056 25.877-6.764 44.169-6.841 44.327a8 8 0 0 0 2.156 9.832c.141.11 13.838 11.499 14.731 27.625zm-46.755-49.266a7.847 7.847 0 0 1 1.143.567 7.947 7.947 0 0 0-1.144-.567zm51-46.208c-4.845-25.908-18.365-50.1-40.323-72.055a210.741 210.741 0 0 0-8.341-7.891l5.75-8.628a80.652 80.652 0 0 1 21.1 14.615c17.129 16.307 27.657 39.036 31.329 67.614z" fill="#13c5dd" data-original="#000000" class=""></path><path d="M162.343 357.624a8 8 0 0 0 13.5-4.079c2-9.871 10.691-36.656 26.687-41.988 20.108-6.706 33.27-.728 33.952-.405a8 8 0 0 0 11.438-6.052c.455-3.19 3.976-31.55-12.449-45.258-8.169-6.817-19.217-8.482-32.883-4.978-5.641-6.712-17.511-22.692-22.589-43.472 13.757 2.088 21.836-1.61 25.8-4.458 4.652-3.342 10.2-10.039 10.2-22.966 0-12.577-5.27-19.227-9.69-22.59-5.727-4.356-12.888-5.622-19.914-5.394q.846-1.684 1.771-3.351a104.84 104.84 0 0 1 2.617-4.425C232 82.261 232 81.918 232 63.967a8 8 0 0 0-3.562-6.656c-.534-.356-13.292-8.719-34.1-10.216-18.716-1.345-48.075 2.743-81.694 29.872l-.184.149L93.657 58.31a8 8 0 0 0-11.9.66 211.636 211.636 0 0 0-28.2 50.072C38.2 148.13 39.464 183.8 57.216 212.207a8 8 0 0 0 8.725 3.521L86 210.71c14.386 28.69 38.932 54.055 68.937 71.319-5.5 6.82-11.9 17.516-12.647 30.925-.854 15.479 5.892 30.508 20.053 44.67zm34.278-183.514c2.242 1.706 3.379 5.023 3.379 9.857 0 7.432-2.659 9.343-3.532 9.97-4.031 2.895-11.825 2.326-18.8.636a76.7 76.7 0 0 1 2.36-21.739c7.472-1.49 13.518-1.064 16.593 1.276zm19.3-105.451c-.523 9.673-4.545 16.4-35.429 65.824-15.249-19.13-35.465-38.084-50.1-50.9 42.739-30.455 74.988-19.918 85.53-14.924zM89 76.28l11.528 11.529c-27.948 28.527-35.572 67.856-20.953 108.016l-11.657 2.915C43.292 151.94 75.674 96.007 89 76.28zm8.742 121.831c-17.69-39.829-10.572-77.78 19.528-104.122.12-.1.24-.2.36-.309 15.519 13.452 38.763 35.013 54.169 55.731a101.236 101.236 0 0 0-5.751 14.183c-.014.042-.036.08-.05.122a92.841 92.841 0 0 0-3.907 37.767v.019c3.981 39.443 31.1 66.971 32.253 68.124a8 8 0 0 0 8.187 1.933c10.422-3.475 18.049-3.288 22.67.552 5.426 4.511 7.062 13.784 7.3 21.348-8.151-1.5-20.34-1.975-35.027 2.92-17.679 5.894-27.744 25.058-32.866 38.9-4.575-7.125-6.7-14.257-6.342-21.311.833-16.257 14.622-27.659 14.736-27.752a8 8 0 0 0-1.421-13.4c-33.228-16.616-60.141-43.839-73.839-74.705z" fill="#13c5dd" data-original="#000000" class=""></path><circle cx="336" cy="135.967" r="8" fill="#13c5dd" data-original="#000000" class=""></circle><circle cx="176" cy="87.967" r="8" fill="#13c5dd" data-original="#000000" class=""></circle></g></svg>