<svg xmlns="http://www.w3.org/2000/svg" version="1.1" xmlns:xlink="http://www.w3.org/1999/xlink" xmlns:svgjs="http://svgjs.com/svgjs" width="512" height="512" x="0" y="0" viewBox="0 0 512 512" style="enable-background:new 0 0 512 512" xml:space="preserve" class=""><g><g data-name="Fish Pond"><path d="M34.175 82.383c7.474 0 4.989-6.741 25.661-18.035a8 8 0 1 0-7.672-14.041C36.078 59.1 29.015 67.936 27.763 69.618a8 8 0 0 0 6.412 12.765ZM89.886 53.058A196.528 196.528 0 0 1 136 48a8 8 0 0 0 0-16 212.54 212.54 0 0 0-49.886 5.509 8 8 0 0 0 3.772 15.549ZM408 168a8 8 0 0 0-8-8c-41.11 0-82.979-29.918-127.308-61.592a8 8 0 1 0-9.3 13.018C309.864 144.634 353.761 176 400 176a8 8 0 0 0 8-8Z" fill="#13c5dd" data-original="#000000" class=""></path><circle cx="240" cy="48" r="8" fill="#13c5dd" data-original="#000000" class=""></circle><circle cx="120" cy="384" r="8" fill="#13c5dd" data-original="#000000" class=""></circle><circle cx="176" cy="504" r="8" fill="#13c5dd" data-original="#000000" class=""></circle><circle cx="504" cy="504" r="8" fill="#13c5dd" data-original="#000000" class=""></circle><path d="M262.5 71.552C311.223 105.694 358.435 144 400 144c83.979 0 110.085-50.282 111.155-52.422 4.689-9.38-9.458-16.59-14.29-7.2-.056.109-5.783 11.035-20.43 21.786C456.976 120.45 430.545 128 400 128c-35.931 0-81.538-36.771-128.319-69.552a8 8 0 0 0-9.182 13.1ZM7.992 63.976c8.511 0 5.572-9.5 33.06-25.672C58.35 28.129 88.864 16 136 16c21.741 0 45.7 7.156 73.25 21.876a8 8 0 1 0 7.54-14.111C186.864 7.773 160.437 0 136 0 36.858 0 2.747 49.457 1.344 51.563a8 8 0 0 0 6.648 12.413ZM504 384a8 8 0 0 0 0-16h-32c-12.107 0-25.37 12.394-32.862 20.648-3.6-2.99-8.6-6.948-14.745-11.3a8 8 0 0 0-9.246 13.058 229.92 229.92 0 0 1 12.6 9.586c-15.107 12.342-53.267 40-91.746 40-38.667 0-67.573-28.509-77.651-40 26.629-30.362 61.932-47.288 102.075-36.608a8 8 0 0 0 4.112-15.463A111.4 111.4 0 0 0 336 344c-56.44 0-92.939 49.194-94.465 51.288a8 8 0 0 0 0 9.424C243.061 406.806 279.56 456 336 456c44.968 0 87.441-31.529 103.151-44.634C446.646 419.621 459.9 432 472 432h32a8 8 0 0 0 0-16c-4.157 0-10.762-7.888-15.087-16 4.325-8.112 10.93-16 15.087-16Zm-31.3 19.269A79.23 79.23 0 0 0 479.972 416H472c-4.665 0-13.994-7.6-21.551-16 7.558-8.406 16.887-16 21.551-16h7.972a79.23 79.23 0 0 0-7.274 12.731 8 8 0 0 0 .002 6.538Z" fill="#13c5dd" data-original="#000000" class=""></path><circle cx="296" cy="400" r="8" fill="#13c5dd" data-original="#000000" class=""></circle><circle cx="392" cy="368" r="8" fill="#13c5dd" data-original="#000000" class=""></circle><circle cx="376" cy="280" r="8" fill="#13c5dd" data-original="#000000" class=""></circle><circle cx="192" cy="232" r="8" fill="#13c5dd" data-original="#000000" class=""></circle><path d="M40 480h70.82c26.736 0 38.067-28.558 31.467-36.947-26.417-32.958-24.981-33.139-28.612-34.527l-62.82-24a8 8 0 0 0-10.01 3.9l-15.051 30.1C7.209 432.07 0 432.755 0 440a40.045 40.045 0 0 0 40 40Zm11.915-77.94 53.985 20.625 21.89 27.815c-1.294 7.638-8.411 13.5-16.97 13.5H40a24.04 24.04 0 0 1-23.658-19.946c31.81-21.833 15.513-5.628 35.573-41.994ZM150 368.16c8.9-10.062 18-23.844 18-49.76 0-87.559-72.864-77.773-13.063-180.1a38.223 38.223 0 0 0 .119-38.718C133.043 61.216 99.521 84.358 81.9 109.59c-5.772 8.266 7.183 17.659 13.118 9.16 13.477-19.3 32.461-35.082 46.16-11.209C156.22 133.754 113.6 143.512 113.6 203.2c0 60.071 38.4 61.324 38.4 115.2 0 20.522-6.72 30.949-13.983 39.161-6.853 7.749 5.183 18.291 11.983 10.599Z" fill="#13c5dd" data-original="#000000" class=""></path><path d="M95.938 379.162C103.88 370.4 112 358.418 112 336c0-50.585-32-51.619-32-96 0-21.57 6.791-31.759 14.654-43.555 5.6-8.406 18.271-25.587 7.457-44.432C96.271 141.836 84.979 136 71.13 136 47.477 136 16 198.729 16 234.67c0 48.3 40 59.676 40 101.33 0 9.73-1.138 17.145-3.581 23.331-3.735 9.457 11.1 15.451 14.882 5.877 3.206-8.119 4.7-17.4 4.7-29.208 0-48.3-40-59.676-40-101.33 0-35.827 30.23-81.029 39.221-82.67 8.032.021 14.072 2.853 17.013 7.977C99.54 179.679 64 190.868 64 240c0 50.585 32 51.619 32 96 0 15.991-4.764 24.524-11.918 32.418-6.925 7.641 4.94 18.375 11.856 10.744ZM422.151 289.114a8 8 0 0 0 0-10.228C421.1 277.624 396.1 248 364 248c-23.658 0-43.445 16.08-52.645 25.049l-18.233-15.195a8 8 0 0 0-10.244 12.292L299.5 284l-16.625 13.854A8.01 8.01 0 0 0 288 312c4.97 0 5.618-3.017 23.351-17.049C320.555 303.92 340.342 320 364 320c32.1 0 57.1-29.624 58.151-30.886ZM323.07 284c27.686-26.5 54.145-26.534 81.86 0-27.683 26.5-54.146 26.534-81.86 0ZM220 384a28 28 0 1 0-28-28 28.032 28.032 0 0 0 28 28Zm0-40a12 12 0 1 1-12 12 12.013 12.013 0 0 1 12-12ZM440 272a24 24 0 1 0 24-24 24.027 24.027 0 0 0-24 24Zm32 0a8 8 0 1 1-8-8 8.009 8.009 0 0 1 8 8ZM512 196a36 36 0 1 0-36 36 36.04 36.04 0 0 0 36-36Zm-36 20a20 20 0 1 1 20-20 20.023 20.023 0 0 1-20 20ZM264 260c0-40.552-52-54.823-52-36a8 8 0 0 0 8 8 28 28 0 1 1-28 28 8 8 0 0 0-8-8c-18.84 0-4.5 52 36 52a44.049 44.049 0 0 0 44-44ZM472 496H208a8 8 0 0 0 0 16h264a8 8 0 0 0 0-16ZM144 496.333H8a8 8 0 1 0 0 16h136a8 8 0 1 0 0-16Z" fill="#13c5dd" data-original="#000000" class=""></path></g></g></svg>