<svg xmlns="http://www.w3.org/2000/svg" version="1.1" xmlns:xlink="http://www.w3.org/1999/xlink" xmlns:svgjs="http://svgjs.com/svgjs" width="512" height="512" x="0" y="0" viewBox="0 0 682.667 682.667" style="enable-background:new 0 0 512 512" xml:space="preserve" class=""><g><defs><clipPath id="a" clipPathUnits="userSpaceOnUse"><path d="M0 512h512V0H0Z" fill="#13c5dd" data-original="#000000" class=""></path></clipPath></defs><g clip-path="url(#a)" transform="matrix(1.33333 0 0 -1.33333 0 682.667)"><path d="M0 0c-6.999 7.709-15.374 15.262-25.389 22.393-64.241 45.74-127.835 47.269-186.944 63.872-69.095 19.407-89.38 126.124.381 177.14 50.134 28.494 103.001 14.37 125.76 5.81 10.123-3.808 18.288-11.487 22.762-21.331 12.711-27.966 21.189-77.389 40.681-79.476 24.64-2.638 18.504 53.398 25.52 57.174 11.44 6.157 53.681 16.713 58.961 33.426 4.13 13.071-69.247 18.554-101.416 20.323-8.698.479-16.85 4.174-23.131 10.206-52.224 50.151-188.464 45.285-260.864-43.356" style="stroke-width:15;stroke-linecap:round;stroke-linejoin:round;stroke-miterlimit:10;stroke-dasharray:none;stroke-opacity:1" transform="translate(406.004 183.004)" fill="none" stroke="#13c5dd" stroke-width="15" stroke-linecap="round" stroke-linejoin="round" stroke-miterlimit="10" stroke-dasharray="none" stroke-opacity="" data-original="#000000" class=""></path><path d="M0 0c-16.812-30.656-27.015-68.586-27.015-114.489 0-288.199 352.137-240.887 352.137-240.887 32.666 11.405 52.801 40.462 52.801 40.462s4.469 30.754-12.648 66.017" style="stroke-width:15;stroke-linecap:round;stroke-linejoin:round;stroke-miterlimit:10;stroke-dasharray:none;stroke-opacity:1" transform="translate(62.533 399.805)" fill="none" stroke="#13c5dd" stroke-width="15" stroke-linecap="round" stroke-linejoin="round" stroke-miterlimit="10" stroke-dasharray="none" stroke-opacity="" data-original="#000000" class=""></path><path d="M0 0s13.2-51.018-66.001-61.572c-79.201-10.556-63.361-101.156-63.361-101.156" style="stroke-width:15;stroke-linecap:round;stroke-linejoin:round;stroke-miterlimit:10;stroke-dasharray:none;stroke-opacity:1" transform="translate(347.175 219.47)" fill="none" stroke="#13c5dd" stroke-width="15" stroke-linecap="round" stroke-linejoin="round" stroke-miterlimit="10" stroke-dasharray="none" stroke-opacity="" data-original="#000000" class=""></path><path d="M0 0c9.652 0 9.668 15 0 15-9.652 0-9.667-15 0-15" style="fill-opacity:1;fill-rule:nonzero;stroke:none" transform="translate(333.975 91.465)" fill="#13c5dd" data-original="#000000" class=""></path><path d="M0 0c10.564-.286 20.762-7.562 31.1-1.91 6.834 3.736 10.109 11.314 10.76 18.77.524 6.002.323 12.094.73 18.116.247 3.65.511 7.324 1.07 10.942.221 1.432.477 2.871.841 4.273.13.498.587 1.47.597 1.983-.019-1.044-.801-1.764-3.558-2.895 3.731 1.53 6.424 4.991 5.238 9.226-.991 3.538-5.443 6.79-9.226 5.238-6.604-2.708-7.743-9.419-8.643-15.809-1.089-7.726-1.583-15.528-1.827-23.323-.074-2.329.01-4.687-.158-7.011-.077-1.078-.72-3.971-1.882-5.412-1.096-1.357-3.359-1.622-6.033-.985C12.501 12.753 6.838 14.814 0 15-9.656 15.262-9.649.262 0 0" style="fill-opacity:1;fill-rule:nonzero;stroke:none" transform="translate(443.976 81.785)" fill="#13c5dd" data-original="#000000" class=""></path><path d="M0 0s-44.633-38.529-149.115-27.376c-104.483 11.152 42.604 79.086 42.604 79.086" style="stroke-width:15;stroke-linecap:round;stroke-linejoin:round;stroke-miterlimit:10;stroke-dasharray:none;stroke-opacity:1" transform="translate(215.065 53.127)" fill="none" stroke="#13c5dd" stroke-width="15" stroke-linecap="round" stroke-linejoin="round" stroke-miterlimit="10" stroke-dasharray="none" stroke-opacity="" data-original="#000000" class=""></path><path d="M0 0s-61.878 57.794-81.151 57.794c-19.274 0-10.629-29.637-10.629-29.637" style="stroke-width:15;stroke-linecap:round;stroke-linejoin:round;stroke-miterlimit:10;stroke-dasharray:none;stroke-opacity:1" transform="translate(339.835 228.535)" fill="none" stroke="#13c5dd" stroke-width="15" stroke-linecap="round" stroke-linejoin="round" stroke-miterlimit="10" stroke-dasharray="none" stroke-opacity="" data-original="#000000" class=""></path><path d="M0 0s10.144 55.767 34.489 38.529c24.345-17.236 2.029-87.197 34.49-100.378 32.46-13.181 87.954 26.853 129.841 14.195 43.619-13.181 71.008-51.71 71.008-51.71" style="stroke-width:15;stroke-linecap:round;stroke-linejoin:round;stroke-miterlimit:10;stroke-dasharray:none;stroke-opacity:1" transform="translate(36.532 265.036)" fill="none" stroke="#13c5dd" stroke-width="15" stroke-linecap="round" stroke-linejoin="round" stroke-miterlimit="10" stroke-dasharray="none" stroke-opacity="" data-original="#000000" class=""></path><path d="M0 0s-30.214 13.778-47.676 0C-66.95-15.209-62.24-35.076-66.95-64.892c-1.911-12.101-20.993-37.405-7.1-62.863 12.173-22.307 48.691-16.223 48.691-16.223" style="stroke-width:15;stroke-linecap:round;stroke-linejoin:round;stroke-miterlimit:10;stroke-dasharray:none;stroke-opacity:1" transform="translate(179.561 438.418)" fill="none" stroke="#13c5dd" stroke-width="15" stroke-linecap="round" stroke-linejoin="round" stroke-miterlimit="10" stroke-dasharray="none" stroke-opacity="" data-original="#000000" class=""></path><path d="M0 0c-6.587-11.581 5.586-29.831-8.616-34.9-14.201-5.071-40.575 13.18-64.921-2.029" style="stroke-width:15;stroke-linecap:round;stroke-linejoin:round;stroke-miterlimit:10;stroke-dasharray:none;stroke-opacity:1" transform="translate(387.655 44.429)" fill="none" stroke="#13c5dd" stroke-width="15" stroke-linecap="round" stroke-linejoin="round" stroke-miterlimit="10" stroke-dasharray="none" stroke-opacity="" data-original="#000000" class=""></path></g></g></svg>