<svg xmlns="http://www.w3.org/2000/svg" version="1.1" xmlns:xlink="http://www.w3.org/1999/xlink" xmlns:svgjs="http://svgjs.com/svgjs" width="512" height="512" x="0" y="0" viewBox="0 0 64 64" style="enable-background:new 0 0 512 512" xml:space="preserve" class=""><g><path d="M32 55h10v2H32zM12 57h4v2h-4zM44.882 38.472l-1.764-.943c-.986 1.846-1.843 2.782-1.849 2.789l1.461 1.365c.042-.045 1.031-1.114 2.152-3.211zM48.429 28.499c.153-.657.323-1.386.541-2.257l-1.939-.484c-.221.883-.394 1.62-.549 2.286-.547 2.339-.877 3.751-2.41 7.585l1.857.742c1.59-3.974 1.951-5.524 2.5-7.872z" fill="#13c5dd" data-original="#000000" class=""></path><path d="M51.934 41.047c.058-.694.065-1.339.065-1.89 2.369-2.814 3.892-5.801 3.98-7.954C57.183 30.244 58 29.185 58 28c0-1.24-.352-2.218-1.003-2.898C57.098 24.489 58 18.986 58 17c0-1.869-.948-7-4-7-6.586 0-9.382 10.17-11.628 18.341-.781 2.844-1.52 5.529-2.286 7.253-.064.144-.142.272-.209.412-.97.008-1.824.104-2.569.276-.932-1.627-2.432-2.846-4.305-3.56.055-9.673 2.933-20.351 2.962-20.459l.588-2.157-2 1c-2.363 1.182-4.617 3.293-6.553 5.906V.586l-1.707 1.707c-.153.153-3.394 3.452-5.543 9.273-3.592-7.015-8.022-9.321-8.303-9.461L9.764.764l1.342 2.684c.664 1.328 1.208 4.505 1.559 8.378-2.23-2.347-4.887-4.484-5.04-4.606L4.069 4.375l2.036 4.072c.528 1.056 1.484 2.972 2.152 4.709-2.484-1.87-4.638-2.964-4.811-3.051L.899 8.832l1.192 2.587C2.15 11.544 7.714 23.771 7.987 37H7c-3.309 0-6 2.691-6 6s2.691 6 6 6h2.726A7.976 7.976 0 0 0 7 55c0 4.411 3.589 8 8 8h38c5.514 0 10-4.486 10-10 0-6.302-4.885-11.473-11.066-11.953zm.138-9.734C52.283 28.748 52.95 26 54 26c1.439 0 2 .561 2 2 0 .778-1.319 1.891-3.928 3.313zM54 12c.215 0 .433.152.643.401-.725 1.241-1.345 1.886-1.35 1.892l1.414 1.414c.027-.027.408-.418.927-1.149.225.805.366 1.682.366 2.442 0 1.455-.575 5.253-.846 6.968-4.385-.155-7.107-1.508-8.093-4.037.157-.414.319-.821.485-1.216A2.991 2.991 0 0 0 50 20c1.654 0 3-1.346 3-3a2.994 2.994 0 0 0-2.75-2.975C51.331 12.773 52.562 12 54 12zm-4 4a1 1 0 1 1 0 2 1 1 0 0 1 0-2zm-8.086 20.406c.827-1.861 1.585-4.617 2.387-7.535.573-2.086 1.189-4.309 1.882-6.439 1.009 1.302 2.668 2.485 5.362 3.107C50.106 27.814 50 31.928 50 33v1.618l1.447-.724c.732-.366 1.474-.75 2.185-1.151-.65 1.845-2.194 4.353-4.774 6.884-2.744 2.691-8.45 7.098-16.595 7.365.441-.566 1.396-1.321 2.266-2.008 2.324-1.836 5.505-4.35 7.385-8.578zm7.965 5.01C49.546 44.075 48.321 46 44.003 46c-.105 0-.268-.01-.461-.032a29.151 29.151 0 0 0 6.337-4.552zm-25.167 1.772c2.4.508 4.602 1.926 5.79 2.847-.292.444-.471.901-.486 1.408l-.045 1.537 1.009.02c.17.003.337.005.504.005.041 0 .079-.004.12-.004-.98 1.589-3.648 4.066-6.22 4.793l1.684-5.894zm9.386-.417c.172-1.584.643-2.919 1.848-3.771H36v-.039c.655-.447 1.528-.752 2.677-.882-1.39 2.001-3.095 3.497-4.579 4.692zm1.284-5.779-.014.008H23.315c.767-1.375 2.894-3 5.685-3 2.838 0 5.147 1.125 6.382 2.992zM18 34c2.006 0 3.414.54 4.277 1.014-.537.632-.926 1.311-1.123 1.986h-8.838c.766-1.375 2.893-3 5.684-3zm15.434-19.839c-.853 3.679-2.315 10.966-2.423 18.024A12.007 12.007 0 0 0 29 32c-.319 0-.632.021-.94.054.208-1.977.903-4.779.91-4.812l-1.939-.484c-.039.156-.89 3.583-1.014 5.754a9.145 9.145 0 0 0-1.998.981c.192-6.457 4.039-15.237 9.415-19.332zM26 5.83v14.262a32.9 32.9 0 0 0-1.529 3.065c-.608-3.484-1.488-6.428-2.5-8.912A28.182 28.182 0 0 1 26 5.83zm-2.994 21.274.033-.003a26.317 26.317 0 0 0-.988 5.616c-.32-.122-.674-.233-1.052-.333V28h-2v4.062C18.673 32.035 18.355 32 18 32a9.095 9.095 0 0 0-3.697.794c1.32-6.811.835-20.551-.512-27.217 2.943 2.679 7.891 8.949 9.215 21.527zM12.913 15.209c.047.816.084 1.647.114 2.483a23.008 23.008 0 0 0-2.081-2.27c-.122-1.013-.519-2.259-1.031-3.524 1.106 1.061 2.221 2.241 2.998 3.311zm-7.849-1.836c2.511 1.629 6.246 4.497 8.034 8.063a89.921 89.921 0 0 1-.164 5.943c-.501-1.724-.998-2.743-1.04-2.826l-1.789.895c.019.036 1.734 3.542 1.88 8.841-.909.818-1.556 1.769-1.832 2.711h-.172c-.193-9.964-3.203-19.172-4.917-23.627zM53 61H15c-3.309 0-6-2.691-6-6s2.691-6 6-6h3v-2H7c-2.206 0-4-1.794-4-4s1.794-4 4-4h26.25c-1.103 1.746-1.235 3.896-1.248 5.455-.046.039-.085.076-.13.115C30.197 43.246 26.662 41 23 41h-1.618l3.55 7.1-2.258 7.9H24c4.043 0 8.881-4.319 9.824-7.114a25.388 25.388 0 0 0 7.091-1.7c1.254.78 2.875.814 3.085.814 5.067 0 6.921-2.439 7.602-4.969C56.835 43.344 61 47.69 61 53c0 4.411-3.589 8-8 8z" fill="#13c5dd" data-original="#000000" class=""></path><path d="M46 50h10v2H46zM16 52h4v2h-4zM7 41h6v2H7zM42 50h2v2h-2zM15 43h3v2h-3zM17 22h2v4h-2z" fill="#13c5dd" data-original="#000000" class=""></path></g></svg>