<svg xmlns="http://www.w3.org/2000/svg" version="1.1" xmlns:xlink="http://www.w3.org/1999/xlink" xmlns:svgjs="http://svgjs.com/svgjs" width="512" height="512" x="0" y="0" viewBox="0 0 60 60" style="enable-background:new 0 0 512 512" xml:space="preserve" class=""><g><g fill="#000" fill-rule="nonzero"><path d="M40.609 27.716a21.709 21.709 0 0 1 2.924-6.883c.564.297 1.19.455 1.828.459a3.841 3.841 0 0 0 3.087-1.539 9.367 9.367 0 0 1 2.691-2.476 3.787 3.787 0 0 0 1.741-2.349c.136-.564.148-1.15.033-1.719a19.39 19.39 0 0 1 4.212-1.217 1 1 0 0 0-.249-1.984c-1.657.27-3.276.737-4.822 1.392a3.934 3.934 0 0 0-4.765-.976 14.4 14.4 0 0 0-5.266 4.641c-.615.892-.835 2-.607 3.059.108.484.308.943.589 1.352a23.669 23.669 0 0 0-3.415 7.986 75.37 75.37 0 0 0-3.489-.3C36.183 11.593 45.9 8.091 46.316 7.949a1.001 1.001 0 1 0-.632-1.9c-.475.158-11.414 4.012-12.579 21.007-.694-.026-1.4-.04-2.1-.049v-9.149A4 4 0 0 0 34 14V9a4 4 0 0 0-3-3.858V1a1 1 0 0 0-2 0v4.142A4 4 0 0 0 26 9v5a4 4 0 0 0 3 3.858v9.151a85.32 85.32 0 0 0-2.105.049C25.73 10.063 14.791 6.209 14.316 6.051a1.002 1.002 0 1 0-.635 1.9c.421.143 10.136 3.645 11.218 19.214a73.873 73.873 0 0 0-3.489.3A23.664 23.664 0 0 0 18 19.481a3.89 3.89 0 0 0-.02-4.415 14.407 14.407 0 0 0-5.267-4.641 3.933 3.933 0 0 0-4.765.976 21.006 21.006 0 0 0-4.822-1.393 1 1 0 0 0-.249 1.984 19.39 19.39 0 0 1 4.212 1.217 3.973 3.973 0 0 0 .033 1.719c.242.984.87 1.83 1.741 2.349a9.367 9.367 0 0 1 2.691 2.476 3.807 3.807 0 0 0 3.07 1.528 4.13 4.13 0 0 0 1.842-.452 21.7 21.7 0 0 1 2.927 6.887C7.955 29.326 0 33.49 0 38.5c0 4.21 4.954 6.541 6.582 7.307a28.976 28.976 0 0 0 5.618 1.855c.459.109.927.207 1.4.306 2.164.455 4.209.885 5.613 2.378a8.735 8.735 0 0 1 1.342 2.172c.286.609.61 1.198.973 1.764a9.177 9.177 0 0 0 3.836 3.16C29.024 59.164 33.649 60 39.5 60c8.968 0 18.5-2.628 18.5-7.5a4.479 4.479 0 0 0-1.937-3.469A3.079 3.079 0 0 1 54.9 46.5c.038-.9.503-1.728 1.253-2.227C58.67 42.565 60 40.57 60 38.5c0-5.01-7.955-9.174-19.391-10.784zM43.667 16.2a12.357 12.357 0 0 1 4.529-4 1.944 1.944 0 0 1 2.523.743c.268.45.348.986.221 1.494a1.8 1.8 0 0 1-.823 1.119 11.341 11.341 0 0 0-3.271 3 1.943 1.943 0 0 1-2.576.407 1.92 1.92 0 0 1-.9-1.258 1.9 1.9 0 0 1 .297-1.505zm-30.513 2.35a11.341 11.341 0 0 0-3.271-3 1.8 1.8 0 0 1-.823-1.119 1.98 1.98 0 0 1 .221-1.494 1.933 1.933 0 0 1 2.523-.738 12.352 12.352 0 0 1 4.529 4 1.9 1.9 0 0 1 .3 1.5A1.971 1.971 0 0 1 15.66 19a1.918 1.918 0 0 1-2.506-.445zM28 14V9a2 2 0 1 1 4 0v5a2 2 0 1 1-4 0zm27.033 28.612a4.8 4.8 0 0 0-2.13 3.795 5.13 5.13 0 0 0 1.9 4.175A2.789 2.789 0 0 1 56 52.5c0 2.6-6.776 5.5-16.5 5.5-5.55 0-9.9-.774-13.29-2.368a7.213 7.213 0 0 1-3.022-2.461 13.506 13.506 0 0 1-.844-1.54 10.433 10.433 0 0 0-1.677-2.655c-1.836-1.951-4.4-2.49-6.66-2.965-.453-.1-.9-.19-1.346-.3A27.2 27.2 0 0 1 7.433 44C3.777 42.277 2 40.479 2 38.5c0-3.665 7.184-7.534 18.61-8.943h.019c.067 0 .134-.006.2-.019.014 0 .024-.012.037-.016a74.448 74.448 0 0 1 5.137-.426h.007a80.643 80.643 0 0 1 7.995 0H34c1.791.088 3.507.232 5.137.426.013 0 .023.013.037.016.066.013.133.02.2.019h.019C50.816 30.966 58 34.835 58 38.5c0 1.739-1.614 3.2-2.967 4.112z" fill="#13c5dd" data-original="#000000" class=""></path><path d="M36 38c0-3.9-6.956-6-13.5-6S9 34.1 9 38s6.956 6 13.5 6S36 41.9 36 38zm-13.5 4C15.375 42 11 39.67 11 38s4.375-4 11.5-4S34 36.33 34 38s-4.375 4-11.5 4zM46.5 34c-3.612 0-7.5 1.1-7.5 3.5s3.888 3.5 7.5 3.5 7.5-1.095 7.5-3.5-3.888-3.5-7.5-3.5zm0 5c-3.425 0-5.434-1.066-5.5-1.5.066-.436 2.075-1.5 5.5-1.5s5.428 1.063 5.5 1.5c-.072.437-2.081 1.5-5.5 1.5zM38.5 45C32.288 45 26 46.717 26 50s6.288 5 12.5 5S51 53.283 51 50s-6.288-5-12.5-5zm0 8C31.706 53 28 51.018 28 50s3.706-3 10.5-3S49 48.982 49 50s-3.706 3-10.5 3z" fill="#13c5dd" data-original="#000000" class=""></path><circle cx="19" cy="37" r="1" fill="#13c5dd" data-original="#000000" class=""></circle><circle cx="15" cy="38" r="1" fill="#13c5dd" data-original="#000000" class=""></circle><circle cx="37" cy="49" r="1" fill="#13c5dd" data-original="#000000" class=""></circle><circle cx="33" cy="50" r="1" fill="#13c5dd" data-original="#000000" class=""></circle></g></g></svg>