<svg xmlns="http://www.w3.org/2000/svg" version="1.1" xmlns:xlink="http://www.w3.org/1999/xlink" xmlns:svgjs="http://svgjs.com/svgjs" width="512" height="512" x="0" y="0" viewBox="0 0 510.273 510.273" style="enable-background:new 0 0 512 512" xml:space="preserve" class=""><g><path d="M358.805 137.73H163.598c-8.639 0-15.668 7.028-15.668 15.668v4.586H69.675c-10.54 0-19.362-8.31-19.666-18.524-.155-5.208 1.761-10.138 5.395-13.881 3.637-3.747 8.504-5.811 13.705-5.811h303.274c14.966 0 27.141-12.175 27.141-27.141s-12.175-27.142-27.141-27.142h-23.844c-4.143 0-7.5 3.357-7.5 7.5s3.357 7.5 7.5 7.5h23.844c6.694 0 12.141 5.446 12.141 12.142 0 6.694-5.446 12.141-12.141 12.141H69.108c-9.292 0-17.981 3.681-24.468 10.363-6.483 6.679-9.901 15.478-9.625 24.774.542 18.239 16.091 33.078 34.659 33.078h78.255v20H70.043c-29.899 0-54.589-23.895-55.037-53.266-.223-14.592 5.306-28.366 15.568-38.786C40.84 90.509 54.525 84.769 69.108 84.769h135.757c13.696 0 24.839-11.143 24.839-24.839s-11.143-24.839-24.839-24.839h-40.382c-4.142 0-7.5 3.357-7.5 7.5s3.358 7.5 7.5 7.5h40.382c5.425 0 9.839 4.414 9.839 9.839s-4.414 9.839-9.839 9.839H69.108c-18.633 0-36.113 7.33-49.221 20.639C6.783 103.713-.277 121.306.008 139.948c.572 37.516 31.99 68.037 70.035 68.037h77.887V224.2c0 .347.02.689.026 1.034h-32.104c-4.142 0-7.5 3.357-7.5 7.5s3.358 7.5 7.5 7.5h34.302a58.94 58.94 0 0 0 7.263 16.054h-19.071c-4.142 0-7.5 3.357-7.5 7.5s3.358 7.5 7.5 7.5h32.949c9.959 7.602 22.385 12.129 35.852 12.129h71.216v19.014l-9.552 9.799a7.5 7.5 0 0 0 10.742 10.47l10.379-10.649a12.02 12.02 0 0 0 3.431-8.433v-20.201h18.002v34.582l-6.845 6.844a7.5 7.5 0 1 0 10.608 10.607l7.699-7.699a12.006 12.006 0 0 0 3.538-8.543v-35.791h16.922v49.272l-8.339 8.338a7.5 7.5 0 1 0 10.608 10.607l9.193-9.193a12.006 12.006 0 0 0 3.538-8.543v-49.123c22.801 5.32 39.842 25.799 39.842 50.198 0 28.428-23.128 51.556-51.556 51.556h-6.367c-4.336-19.034-21.386-33.287-41.715-33.287h-67.354c-3.794 0-7.254 1.925-9.255 5.148s-2.191 7.178-.508 10.576l22.388 45.246-22.388 45.246a10.826 10.826 0 0 0 .509 10.577 10.825 10.825 0 0 0 9.255 5.147h28.733c4.143 0 7.5-3.357 7.5-7.5s-3.357-7.5-7.5-7.5h-22.12l19.036-38.47h69.497v10.679c0 15.324-12.468 27.791-27.792 27.791h-6.657c-4.143 0-7.5 3.357-7.5 7.5s3.357 7.5 7.5 7.5h6.657c20.764 0 38.114-14.867 41.981-34.514h18.332c83.521 0 151.469-67.948 151.469-151.469S442.325 137.73 358.805 137.73zM162.93 224.2v-70.802c0-.368.3-.668.668-.668h154.417v66.362c0 4.143 3.357 7.5 7.5 7.5s7.5-3.357 7.5-7.5V152.73h25.789c24.641 0 47.776 6.566 67.752 18.038l-56.857 101.799a66.237 66.237 0 0 0-23.126-4.15h-13.558v-18.615c0-4.143-3.357-7.5-7.5-7.5s-7.5 3.357-7.5 7.5v18.615H207.147c-24.381 0-44.217-19.836-44.217-44.217zm220.153 55.165 56.074-100.397c22.757 16.634 40.192 40.131 49.231 67.423l-82.787 57.892a67.012 67.012 0 0 0-22.518-24.918zm5.56 107.137 22.824 28.592a135.317 135.317 0 0 1-32.053 9.02l-5.91-28.298a66.667 66.667 0 0 0 15.139-9.314zm-90.152-18.26c15.324 0 27.792 12.468 27.792 27.792v10.678h-69.497l-19.036-38.47zm42.792 57.427v-24.14h5.29c4.291 0 8.483-.423 12.55-1.203l5.267 25.219c-1.854.075-3.714.124-5.585.124zm83.992-17.321-26.09-32.683a66.573 66.573 0 0 0 8.883-15.26l62.689 6.741a137.488 137.488 0 0 1-45.482 41.202zm54.14-55.357-67.174-7.224c.576-3.515.889-7.118.889-10.794a66.47 66.47 0 0 0-2.013-16.243l81.396-56.918a136.598 136.598 0 0 1 2.762 27.389c-.002 23.029-5.744 44.741-15.86 63.79z" fill="#13c5dd" data-original="#000000" class=""></path><path d="M308.43 80.486h11.436c4.143 0 7.5-3.357 7.5-7.5s-3.357-7.5-7.5-7.5H308.43c-4.143 0-7.5 3.357-7.5 7.5s3.357 7.5 7.5 7.5z" fill="#13c5dd" data-original="#000000" class=""></path><circle cx="214.535" cy="193.074" r="11.04" transform="rotate(-67.48 214.608 193.024)" fill="#13c5dd" data-original="#000000" class=""></circle></g></svg>