<svg xmlns="http://www.w3.org/2000/svg" version="1.1" xmlns:xlink="http://www.w3.org/1999/xlink" xmlns:svgjs="http://svgjs.com/svgjs" width="512" height="512" x="0" y="0" viewBox="0 0 512 512" style="enable-background:new 0 0 512 512" xml:space="preserve"><g><path d="M131.76 234.5c31.06 0 31.06-20 62.12-20 31.07 0 31.07 20 62.13 20s31.06-20 62.12-20 31.06 20 62.12 20c31.07 0 31.07-20 62.13-20s31.06 20 62.12 20M399.171 321.189c14.219-5.683 20.168-16.689 43.209-16.689 31.06 0 31.06 20 62.12 20M131.76 324.5c31.06 0 31.06-20 62.12-20 31.07 0 31.07 20 62.13 20s31.06-20 62.12-20c24.726 0 29.768 12.675 46.466 17.844M126.44 504.29c1.67.14 3.44.21 5.32.21 31.06 0 31.06-20 62.12-20 31.07 0 31.07 20 62.13 20s31.06-20 62.12-20 31.06 20 62.12 20c31.07 0 31.07-20 62.13-20s31.06 20 62.12 20M131.76 414.5c31.06 0 31.06-20 62.12-20 31.07 0 31.07 20 62.13 20s31.06-20 62.12-20 31.06 20 62.12 20c31.07 0 31.07-20 62.13-20s31.06 20 62.12 20M467.765 55.016 432.354 8.844a3.433 3.433 0 0 0-5.449 0l-35.411 46.172c-1.732 2.259-.122 5.523 2.725 5.523h14.39a3.434 3.434 0 0 1 3.434 3.434v57.508a3.434 3.434 0 0 0 3.434 3.434h28.308a3.434 3.434 0 0 0 3.434-3.434V63.973a3.434 3.434 0 0 1 3.434-3.434h14.39c2.844 0 4.455-3.264 2.722-5.523zM302.765 55.016 267.354 8.844a3.433 3.433 0 0 0-5.449 0l-35.411 46.172c-1.732 2.259-.122 5.523 2.725 5.523h14.39a3.434 3.434 0 0 1 3.434 3.434v57.508a3.434 3.434 0 0 0 3.434 3.434h28.308a3.434 3.434 0 0 0 3.434-3.434V63.973a3.434 3.434 0 0 1 3.434-3.434h14.39c2.844 0 4.455-3.264 2.722-5.523z" style="stroke-width:15;stroke-linecap:round;stroke-linejoin:round;stroke-miterlimit:10;" fill="none" stroke="#13c5dd" stroke-width="15" stroke-linecap="round" stroke-linejoin="round" stroke-miterlimit="10" data-original="#000000"></path><path d="M7.5 188.018V14.5a7 7 0 0 1 7-7h110.258a7 7 0 0 1 7 7v483a7 7 0 0 1-7 7H14.5a7 7 0 0 1-7-7V223.018M131.758 53.5H97.143M131.758 98.5H97.143M131.758 143.5H97.143M131.758 188.5H97.143M131.758 233.5H97.143M131.758 278.5H97.143M131.758 323.5H97.143M131.758 368.5H97.143M131.758 413.5H97.143M131.758 458.5H97.143" style="stroke-width:15;stroke-linecap:round;stroke-linejoin:round;stroke-miterlimit:10;" fill="none" stroke="#13c5dd" stroke-width="15" stroke-linecap="round" stroke-linejoin="round" stroke-miterlimit="10" data-original="#000000"></path></g></svg>